<?xml version="1.0" encoding="UTF-8"?>
<!DOCTYPE svg PUBLIC "-//W3C//DTD SVG 1.1//EN" "http://www.w3.org/Graphics/SVG/1.1/DTD/svg11.dtd">
<svg xmlns="http://www.w3.org/2000/svg" version="1.1" width="256px" height="128px" style="shape-rendering:geometricPrecision; text-rendering:geometricPrecision; image-rendering:optimizeQuality; fill-rule:evenodd; clip-rule:evenodd" xmlns:xlink="http://www.w3.org/1999/xlink">
<g><path style="opacity:1" fill="#8b5432" d="M -0.5,-0.5 C 12.5,-0.5 25.5,-0.5 38.5,-0.5C 38.0825,0.221579 37.4158,0.721579 36.5,1C 38.158,1.72535 38.658,2.89201 38,4.5C 37,4.16667 36,3.83333 35,3.5C 32.8745,7.30865 29.0412,9.30865 23.5,9.5C 20.9859,9.25843 18.8193,8.9251 17,8.5C 15.786,10.0488 14.286,11.2155 12.5,12C 12.9574,12.414 13.2907,12.914 13.5,13.5C 9.04722,15.5873 9.71389,17.2539 15.5,18.5C 14.1516,19.6006 12.6516,20.6006 11,21.5C 10.6667,20.8333 10.3333,20.1667 10,19.5C 7,19.8333 5.33333,21.5 5,24.5C 3.31949,22.5722 1.48616,22.2388 -0.5,23.5C -0.5,15.5 -0.5,7.5 -0.5,-0.5 Z"/></g>
<g><path style="opacity:1" fill="#d19a71" d="M 55.5,-0.5 C 81.5,-0.5 107.5,-0.5 133.5,-0.5C 133.611,0.117425 133.944,0.617425 134.5,1C 131.438,1.7415 128.438,1.57483 125.5,0.5C 122.409,3.64181 122.909,5.97515 127,7.5C 128.779,5.98257 128.279,5.14924 125.5,5C 128.271,2.5773 130.271,3.0773 131.5,6.5C 131.291,7.08605 130.957,7.58605 130.5,8C 132.574,7.77275 134.574,7.93942 136.5,8.5C 136.833,8.33333 137.167,8.16667 137.5,8C 134.706,6.96397 134.206,5.46397 136,3.5C 138.466,4.10968 140.966,3.77635 143.5,2.5C 143.736,3.24717 144.07,4.0805 144.5,5C 143.588,7.20486 142.255,9.03819 140.5,10.5C 133.261,10.7848 126.261,11.7848 119.5,13.5C 118.194,13.879 116.861,14.2124 115.5,14.5C 113.348,12.1882 111.348,12.5215 109.5,15.5C 107.629,14.233 105.796,14.233 104,15.5C 102.691,13.1088 101.691,13.1088 101,15.5C 100.333,12.8333 99.6667,12.8333 99,15.5C 96.2749,15.2154 93.7749,13.8821 91.5,11.5C 92.376,10.7492 93.376,10.2492 94.5,10C 92.1311,9.68573 89.9644,8.8524 88,7.5C 85.9757,7.79954 85.4757,8.63287 86.5,10C 83.8832,10.8215 81.2165,11.3215 78.5,11.5C 74.4862,11.6655 70.4862,11.4988 66.5,11C 67.8882,10.1107 67.7215,9.61066 66,9.5C 65,9.83333 64,10.1667 63,10.5C 60.6875,9.14784 58.1875,8.48117 55.5,8.5C 41.8118,10.6572 41.4784,9.82391 54.5,6C 55.1667,5.33333 55.8333,4.66667 56.5,4C 53.4465,3.82145 50.4465,3.32145 47.5,2.5C 50.3697,1.74322 53.0364,0.743221 55.5,-0.5 Z"/></g>
<g><path style="opacity:1" fill="#ad7147" d="M 234.5,-0.5 C 241.5,-0.5 248.5,-0.5 255.5,-0.5C 255.5,4.5 255.5,9.5 255.5,14.5C 252.244,15.7689 250.744,14.4355 251,10.5C 248.688,10.9551 246.688,11.9551 245,13.5C 244.667,13.1667 244.333,12.8333 244,12.5C 243.667,13.5 243.333,14.5 243,15.5C 242,14.5 241,13.5 240,12.5C 238.192,12.8881 236.525,12.8881 235,12.5C 234.333,16.5 233.667,16.5 233,12.5C 232.389,16.2721 231.389,16.2721 230,12.5C 228.548,13.9071 228.715,15.4071 230.5,17C 229.428,18.2837 228.095,18.6171 226.5,18C 225.5,21.3333 224.5,21.3333 223.5,18C 224.167,17.6667 224.833,17.3333 225.5,17C 224.167,16.3333 222.833,15.6667 221.5,15C 221.833,14.6667 222.167,14.3333 222.5,14C 219.969,13.5522 217.636,12.7189 215.5,11.5C 214.942,10.2101 213.942,9.37675 212.5,9C 212.833,8 213.167,7 213.5,6C 215.126,6.19529 216.793,6.19529 218.5,6C 217.833,5.66667 217.167,5.33333 216.5,5C 220.604,3.12856 224.437,2.62856 228,3.5C 230.173,2.06723 232.34,0.733895 234.5,-0.5 Z"/></g>
<g><path style="opacity:1" fill="#b57d55" d="M 133.5,-0.5 C 152.167,-0.5 170.833,-0.5 189.5,-0.5C 191.658,1.22001 194.325,2.05334 197.5,2C 197.167,2.33333 196.833,2.66667 196.5,3C 193.097,3.1004 189.93,3.93373 187,5.5C 183.995,5.68618 180.828,5.35284 177.5,4.5C 177.5,5.5 177.5,6.5 177.5,7.5C 174.167,7.16667 170.833,6.83333 167.5,6.5C 167.5,5.5 167.5,4.5 167.5,3.5C 165.508,3.32846 163.842,3.99512 162.5,5.5C 158.023,4.40533 153.523,4.40533 149,5.5C 148.487,6.52656 147.987,7.52656 147.5,8.5C 145.485,9.92381 143.152,10.5905 140.5,10.5C 142.255,9.03819 143.588,7.20486 144.5,5C 144.07,4.0805 143.736,3.24717 143.5,2.5C 140.966,3.77635 138.466,4.10968 136,3.5C 134.206,5.46397 134.706,6.96397 137.5,8C 137.167,8.16667 136.833,8.33333 136.5,8.5C 134.574,7.93942 132.574,7.77275 130.5,8C 130.957,7.58605 131.291,7.08605 131.5,6.5C 130.271,3.0773 128.271,2.5773 125.5,5C 128.279,5.14924 128.779,5.98257 127,7.5C 122.909,5.97515 122.409,3.64181 125.5,0.5C 128.438,1.57483 131.438,1.7415 134.5,1C 133.944,0.617425 133.611,0.117425 133.5,-0.5 Z"/></g>
<g><path style="opacity:1" fill="#d39c72" d="M 167.5,6.5 C 160.968,8.04512 154.301,8.71179 147.5,8.5C 147.987,7.52656 148.487,6.52656 149,5.5C 153.523,4.40533 158.023,4.40533 162.5,5.5C 163.842,3.99512 165.508,3.32846 167.5,3.5C 167.5,4.5 167.5,5.5 167.5,6.5 Z"/></g>
<g><path style="opacity:1" fill="#a56a41" d="M 189.5,-0.5 C 204.5,-0.5 219.5,-0.5 234.5,-0.5C 232.34,0.733895 230.173,2.06723 228,3.5C 224.437,2.62856 220.604,3.12856 216.5,5C 217.167,5.33333 217.833,5.66667 218.5,6C 216.793,6.19529 215.126,6.19529 213.5,6C 213.167,7 212.833,8 212.5,9C 213.942,9.37675 214.942,10.2101 215.5,11.5C 213.396,11.2011 211.396,11.5344 209.5,12.5C 210.729,13.2811 212.062,13.7811 213.5,14C 211.43,14.9476 209.93,16.4476 209,18.5C 208.333,17.1667 207.667,15.8333 207,14.5C 204.276,14.7762 201.609,14.7762 199,14.5C 198.07,12.0341 197.237,12.2007 196.5,15C 198.07,16.7018 197.737,17.5351 195.5,17.5C 193.063,16.2587 190.563,15.2587 188,14.5C 183.627,15.021 179.461,16.021 175.5,17.5C 171.452,17.3946 167.452,17.7279 163.5,18.5C 159.479,19.5032 155.479,20.5032 151.5,21.5C 151.461,20.4168 151.127,19.4168 150.5,18.5C 148.328,17.7952 146.328,16.7952 144.5,15.5C 143.742,16.8114 142.742,17.3114 141.5,17C 142.451,16.2825 142.617,15.4491 142,14.5C 140.333,15.1667 138.667,15.8333 137,16.5C 133.893,16.0469 130.893,16.0469 128,16.5C 127.676,14.4311 126.842,14.0977 125.5,15.5C 124.459,13.0087 123.626,13.0087 123,15.5C 122.333,12.8333 121.667,12.8333 121,15.5C 120.722,14.5842 120.222,13.9175 119.5,13.5C 126.261,11.7848 133.261,10.7848 140.5,10.5C 143.152,10.5905 145.485,9.92381 147.5,8.5C 154.301,8.71179 160.968,8.04512 167.5,6.5C 170.833,6.83333 174.167,7.16667 177.5,7.5C 177.5,6.5 177.5,5.5 177.5,4.5C 180.828,5.35284 183.995,5.68618 187,5.5C 189.93,3.93373 193.097,3.1004 196.5,3C 196.833,2.66667 197.167,2.33333 197.5,2C 194.325,2.05334 191.658,1.22001 189.5,-0.5 Z"/></g>
<g><path style="opacity:1" fill="#aa6f47" d="M 38.5,-0.5 C 44.1667,-0.5 49.8333,-0.5 55.5,-0.5C 53.0364,0.743221 50.3697,1.74322 47.5,2.5C 50.4465,3.32145 53.4465,3.82145 56.5,4C 55.8333,4.66667 55.1667,5.33333 54.5,6C 41.4784,9.82391 41.8118,10.6572 55.5,8.5C 58.1875,8.48117 60.6875,9.14784 63,10.5C 64,10.1667 65,9.83333 66,9.5C 67.7215,9.61066 67.8882,10.1107 66.5,11C 70.4862,11.4988 74.4862,11.6655 78.5,11.5C 77.0821,13.3079 75.0821,13.9746 72.5,13.5C 72.5875,16.5983 72.0875,16.9316 71,14.5C 70.2496,15.1258 69.4162,15.6258 68.5,16C 69.4506,16.7175 69.6172,17.5509 69,18.5C 66.8669,17.7449 65.2002,16.4116 64,14.5C 63.0206,16.3203 61.5206,17.487 59.5,18C 59.8333,18.3333 60.1667,18.6667 60.5,19C 59.695,20.1127 59.0283,21.2794 58.5,22.5C 58.1667,22.5 57.8333,22.5 57.5,22.5C 56.659,20.4885 55.159,19.1552 53,18.5C 50.8175,18.4855 48.8175,19.4855 47,21.5C 45.324,20.9389 43.9906,19.9389 43,18.5C 38.8081,21.5031 37.9748,21.0031 40.5,17C 39.1011,16.4054 37.7678,16.5721 36.5,17.5C 35.5224,17.0233 34.6891,16.3567 34,15.5C 33.3333,18.1667 32.6667,18.1667 32,15.5C 30.6047,16.4303 29.1047,16.4303 27.5,15.5C 26.3279,15.9186 25.3279,16.5853 24.5,17.5C 22.5653,17.8734 20.732,17.2068 19,15.5C 17.0503,15.7074 15.8836,16.7074 15.5,18.5C 9.71389,17.2539 9.04722,15.5873 13.5,13.5C 13.2907,12.914 12.9574,12.414 12.5,12C 14.286,11.2155 15.786,10.0488 17,8.5C 18.8193,8.9251 20.9859,9.25843 23.5,9.5C 29.0412,9.30865 32.8745,7.30865 35,3.5C 36,3.83333 37,4.16667 38,4.5C 38.658,2.89201 38.158,1.72535 36.5,1C 37.4158,0.721579 38.0825,0.221579 38.5,-0.5 Z"/></g>
<g><path style="opacity:1" fill="#c17c43" d="M 119.5,13.5 C 120.222,13.9175 120.722,14.5842 121,15.5C 121.667,12.8333 122.333,12.8333 123,15.5C 123.626,13.0087 124.459,13.0087 125.5,15.5C 126.842,14.0977 127.676,14.4311 128,16.5C 130.893,16.0469 133.893,16.0469 137,16.5C 138.667,15.8333 140.333,15.1667 142,14.5C 142.617,15.4491 142.451,16.2825 141.5,17C 142.742,17.3114 143.742,16.8114 144.5,15.5C 146.328,16.7952 148.328,17.7952 150.5,18.5C 151.127,19.4168 151.461,20.4168 151.5,21.5C 150.833,21.5 150.167,21.5 149.5,21.5C 149.631,20.7611 149.464,20.0944 149,19.5C 146.667,20.8333 144.333,20.8333 142,19.5C 141.333,22.1667 140.667,22.1667 140,19.5C 138.381,20.083 136.548,20.083 134.5,19.5C 133.522,19.9767 132.689,20.6433 132,21.5C 131,20.1667 130,20.1667 129,21.5C 128.085,20.6721 127.419,19.6721 127,18.5C 124.909,19.4996 123.243,18.8329 122,16.5C 121.641,19.5443 120.974,19.8776 120,17.5C 119.692,18.3081 119.192,18.9747 118.5,19.5C 118.511,18.5585 118.011,17.8919 117,17.5C 115.715,17.9504 114.548,18.6171 113.5,19.5C 112.459,17.0087 111.626,17.0087 111,19.5C 110.667,18.8333 110.333,18.1667 110,17.5C 109.583,18.756 108.75,19.4226 107.5,19.5C 105.807,17.2336 103.64,16.9003 101,18.5C 100.333,15.8333 99.6667,15.8333 99,18.5C 92.2418,14.6788 85.5752,14.6788 79,18.5C 78.6667,18.1667 78.3333,17.8333 78,17.5C 76.0109,19.3839 74.0109,19.7172 72,18.5C 71.5357,19.0944 71.369,19.7611 71.5,20.5C 69.0712,20.585 67.0712,21.585 65.5,23.5C 63.2534,22.6258 60.9201,22.2924 58.5,22.5C 59.0283,21.2794 59.695,20.1127 60.5,19C 60.1667,18.6667 59.8333,18.3333 59.5,18C 61.5206,17.487 63.0206,16.3203 64,14.5C 65.2002,16.4116 66.8669,17.7449 69,18.5C 69.6172,17.5509 69.4506,16.7175 68.5,16C 69.4162,15.6258 70.2496,15.1258 71,14.5C 72.0875,16.9316 72.5875,16.5983 72.5,13.5C 75.0821,13.9746 77.0821,13.3079 78.5,11.5C 81.2165,11.3215 83.8832,10.8215 86.5,10C 85.4757,8.63287 85.9757,7.79954 88,7.5C 89.9644,8.8524 92.1311,9.68573 94.5,10C 93.376,10.2492 92.376,10.7492 91.5,11.5C 93.7749,13.8821 96.2749,15.2154 99,15.5C 99.6667,12.8333 100.333,12.8333 101,15.5C 101.691,13.1088 102.691,13.1088 104,15.5C 105.796,14.233 107.629,14.233 109.5,15.5C 111.348,12.5215 113.348,12.1882 115.5,14.5C 116.861,14.2124 118.194,13.879 119.5,13.5 Z"/></g>
<g><path style="opacity:1" fill="#cc7f30" d="M 255.5,17.5 C 255.5,18.5 255.5,19.5 255.5,20.5C 247.503,21.8814 239.503,22.5481 231.5,22.5C 233.365,20.4658 235.532,19.7992 238,20.5C 238.317,18.6992 238.984,18.3659 240,19.5C 240.5,19 241,18.5 241.5,18C 246.235,18.0185 250.902,17.8518 255.5,17.5 Z"/></g>
<g><path style="opacity:1" fill="#cd7c32" d="M 149.5,21.5 C 148.833,21.5 148.5,21.8333 148.5,22.5C 145.122,23.0231 142.122,24.3565 139.5,26.5C 138.167,25.0665 136.667,23.7332 135,22.5C 132.768,23.4699 130.268,23.8032 127.5,23.5C 126.201,22.91 125.368,21.91 125,20.5C 124.667,21.1667 124.333,21.8333 124,22.5C 122.667,21.1667 121.333,21.1667 120,22.5C 118.84,20.203 117.84,20.5363 117,23.5C 116.641,20.4557 115.974,20.1224 115,22.5C 112.676,21.1552 110.342,20.8218 108,21.5C 107.536,20.9056 107.369,20.2389 107.5,19.5C 108.75,19.4226 109.583,18.756 110,17.5C 110.333,18.1667 110.667,18.8333 111,19.5C 111.626,17.0087 112.459,17.0087 113.5,19.5C 114.548,18.6171 115.715,17.9504 117,17.5C 118.011,17.8919 118.511,18.5585 118.5,19.5C 119.192,18.9747 119.692,18.3081 120,17.5C 120.974,19.8776 121.641,19.5443 122,16.5C 123.243,18.8329 124.909,19.4996 127,18.5C 127.419,19.6721 128.085,20.6721 129,21.5C 130,20.1667 131,20.1667 132,21.5C 132.689,20.6433 133.522,19.9767 134.5,19.5C 136.548,20.083 138.381,20.083 140,19.5C 140.667,22.1667 141.333,22.1667 142,19.5C 144.333,20.8333 146.667,20.8333 149,19.5C 149.464,20.0944 149.631,20.7611 149.5,21.5 Z"/></g>
<g><path style="opacity:1" fill="#b37343" d="M 255.5,14.5 C 255.5,15.5 255.5,16.5 255.5,17.5C 250.902,17.8518 246.235,18.0185 241.5,18C 241,18.5 240.5,19 240,19.5C 238.984,18.3659 238.317,18.6992 238,20.5C 235.532,19.7992 233.365,20.4658 231.5,22.5C 227.826,22.971 223.493,23.3043 218.5,23.5C 214.406,22.5143 210.406,22.8477 206.5,24.5C 205.833,24.1667 205.167,23.8333 204.5,23.5C 200.391,21.617 196.057,20.617 191.5,20.5C 186.226,19.1425 180.893,18.1425 175.5,17.5C 179.461,16.021 183.627,15.021 188,14.5C 190.563,15.2587 193.063,16.2587 195.5,17.5C 197.737,17.5351 198.07,16.7018 196.5,15C 197.237,12.2007 198.07,12.0341 199,14.5C 201.609,14.7762 204.276,14.7762 207,14.5C 207.667,15.8333 208.333,17.1667 209,18.5C 209.93,16.4476 211.43,14.9476 213.5,14C 212.062,13.7811 210.729,13.2811 209.5,12.5C 211.396,11.5344 213.396,11.2011 215.5,11.5C 217.636,12.7189 219.969,13.5522 222.5,14C 222.167,14.3333 221.833,14.6667 221.5,15C 222.833,15.6667 224.167,16.3333 225.5,17C 224.833,17.3333 224.167,17.6667 223.5,18C 224.5,21.3333 225.5,21.3333 226.5,18C 228.095,18.6171 229.428,18.2837 230.5,17C 228.715,15.4071 228.548,13.9071 230,12.5C 231.389,16.2721 232.389,16.2721 233,12.5C 233.667,16.5 234.333,16.5 235,12.5C 236.525,12.8881 238.192,12.8881 240,12.5C 241,13.5 242,14.5 243,15.5C 243.333,14.5 243.667,13.5 244,12.5C 244.333,12.8333 244.667,13.1667 245,13.5C 246.688,11.9551 248.688,10.9551 251,10.5C 250.744,14.4355 252.244,15.7689 255.5,14.5 Z"/></g>
<g><path style="opacity:1" fill="#b57443" d="M 57.5,22.5 C 44.9586,22.8048 30.7919,23.4715 15,24.5C 14,24.1667 13,23.8333 12,23.5C 8.92287,25.1148 5.58954,26.1148 2,26.5C 1.32924,25.7476 0.495904,25.4142 -0.5,25.5C -0.5,24.8333 -0.5,24.1667 -0.5,23.5C 1.48616,22.2388 3.31949,22.5722 5,24.5C 5.33333,21.5 7,19.8333 10,19.5C 10.3333,20.1667 10.6667,20.8333 11,21.5C 12.6516,20.6006 14.1516,19.6006 15.5,18.5C 15.8836,16.7074 17.0503,15.7074 19,15.5C 20.732,17.2068 22.5653,17.8734 24.5,17.5C 25.3279,16.5853 26.3279,15.9186 27.5,15.5C 29.1047,16.4303 30.6047,16.4303 32,15.5C 32.6667,18.1667 33.3333,18.1667 34,15.5C 34.6891,16.3567 35.5224,17.0233 36.5,17.5C 37.7678,16.5721 39.1011,16.4054 40.5,17C 37.9748,21.0031 38.8081,21.5031 43,18.5C 43.9906,19.9389 45.324,20.9389 47,21.5C 48.8175,19.4855 50.8175,18.4855 53,18.5C 55.159,19.1552 56.659,20.4885 57.5,22.5 Z"/></g>
<g><path style="opacity:1" fill="#f99933" d="M 135.5,27.5 C 121.551,27.9495 108.218,27.9495 95.5,27.5C 95.5106,25.9826 96.1772,24.8159 97.5,24C 97.2716,23.6012 96.9382,23.4346 96.5,23.5C 96.3505,22.448 96.5172,21.448 97,20.5C 99.1262,20.7906 101.46,21.4573 104,22.5C 104.333,21.8333 104.667,21.1667 105,20.5C 107.982,26.5466 112.649,27.8799 119,24.5C 123.967,26.121 128.3,26.4543 132,25.5C 133.302,26.0848 134.469,26.7515 135.5,27.5 Z"/></g>
<g><path style="opacity:1" fill="#e28934" d="M 107.5,19.5 C 107.369,20.2389 107.536,20.9056 108,21.5C 110.342,20.8218 112.676,21.1552 115,22.5C 115.974,20.1224 116.641,20.4557 117,23.5C 117.84,20.5363 118.84,20.203 120,22.5C 121.333,21.1667 122.667,21.1667 124,22.5C 124.333,21.8333 124.667,21.1667 125,20.5C 125.368,21.91 126.201,22.91 127.5,23.5C 130.268,23.8032 132.768,23.4699 135,22.5C 136.667,23.7332 138.167,25.0665 139.5,26.5C 138.609,27.1098 137.609,27.4431 136.5,27.5C 136.167,27.5 135.833,27.5 135.5,27.5C 134.469,26.7515 133.302,26.0848 132,25.5C 128.3,26.4543 123.967,26.121 119,24.5C 112.649,27.8799 107.982,26.5466 105,20.5C 104.667,21.1667 104.333,21.8333 104,22.5C 101.46,21.4573 99.1262,20.7906 97,20.5C 96.5172,21.448 96.3505,22.448 96.5,23.5C 94.9139,22.5868 93.4139,22.5868 92,23.5C 91.6924,22.6919 91.1924,22.0253 90.5,21.5C 88.9299,21.6938 87.4299,21.6938 86,21.5C 85.6924,20.6919 85.1924,20.0253 84.5,19.5C 81.5692,20.2728 78.7359,21.2728 76,22.5C 74.951,20.8934 73.451,20.2267 71.5,20.5C 71.369,19.7611 71.5357,19.0944 72,18.5C 74.0109,19.7172 76.0109,19.3839 78,17.5C 78.3333,17.8333 78.6667,18.1667 79,18.5C 85.5752,14.6788 92.2418,14.6788 99,18.5C 99.6667,15.8333 100.333,15.8333 101,18.5C 103.64,16.9003 105.807,17.2336 107.5,19.5 Z"/></g>
<g><path style="opacity:1" fill="#ddad85" d="M 175.5,17.5 C 180.893,18.1425 186.226,19.1425 191.5,20.5C 189.744,21.5521 189.077,23.2188 189.5,25.5C 193.223,25.3577 194.056,26.691 192,29.5C 191.676,27.4311 190.842,27.0977 189.5,28.5C 186.287,28.2782 184.454,26.6115 184,23.5C 181.362,30.4102 181.196,37.4102 183.5,44.5C 181.646,47.9202 182.313,50.5868 185.5,52.5C 186.942,53.8195 187.608,55.4862 187.5,57.5C 186.62,59.3888 186.62,61.3888 187.5,63.5C 188.675,63.281 189.675,63.6143 190.5,64.5C 190.376,65.1067 190.043,65.44 189.5,65.5C 187.333,64.802 185.5,63.4687 184,61.5C 183.544,60.2559 184.044,59.4226 185.5,59C 184.601,57.3484 183.601,55.8484 182.5,54.5C 180.354,51.8902 180.021,49.0568 181.5,46C 181.285,44.0922 180.285,42.9256 178.5,42.5C 176.014,41.5384 176.014,40.7051 178.5,40C 176.446,37.5393 174.946,34.7059 174,31.5C 173.333,30.1667 172.667,30.1667 172,31.5C 171.316,30.2161 171.483,29.0495 172.5,28C 170.888,27.2797 169.388,27.4464 168,28.5C 167.667,27.5 167.333,26.5 167,25.5C 165.506,26.7472 164.006,26.7472 162.5,25.5C 163.971,23.1698 164.304,20.8364 163.5,18.5C 167.452,17.7279 171.452,17.3946 175.5,17.5 Z"/></g>
<g><path style="opacity:1" fill="#e9a959" d="M 218.5,23.5 C 218.082,24.2216 217.416,24.7216 216.5,25C 217.98,27.6679 219.48,27.8345 221,25.5C 221.689,26.3567 222.522,27.0233 223.5,27.5C 224.696,27.1543 224.696,26.6543 223.5,26C 227.089,25.7931 230.589,25.2931 234,24.5C 236.698,24.901 239.865,25.0677 243.5,25C 241.833,25.3333 240.167,25.6667 238.5,26C 239.448,26.4828 240.448,26.6495 241.5,26.5C 241.856,29.5641 241.023,32.2307 239,34.5C 236.243,34.0807 233.243,33.4141 230,32.5C 228.434,31.9394 227.101,32.6061 226,34.5C 225.667,33.8333 225.333,33.1667 225,32.5C 224.259,33.6405 223.425,33.6405 222.5,32.5C 221.702,32.9569 221.369,33.6236 221.5,34.5C 220.5,33.8333 219.5,33.1667 218.5,32.5C 214.881,29.3504 210.881,26.6837 206.5,24.5C 210.406,22.8477 214.406,22.5143 218.5,23.5 Z"/></g>
<g><path style="opacity:1" fill="#f4b653" d="M 96.5,23.5 C 96.9382,23.4346 97.2716,23.6012 97.5,24C 96.1772,24.8159 95.5106,25.9826 95.5,27.5C 93.1727,27.2471 91.1727,27.9137 89.5,29.5C 88.3044,29.1543 88.3044,28.6543 89.5,28C 87.6031,26.8903 85.7698,26.7236 84,27.5C 82.6914,25.1088 81.6914,25.1088 81,27.5C 80.3333,26.1667 79.6667,26.1667 79,27.5C 78,26.5 77,25.5 76,24.5C 69.6667,25.1667 63.3333,25.8333 57,26.5C 53.2755,25.6377 49.1089,25.8044 44.5,27C 45.5,27.3333 46.5,27.6667 47.5,28C 46.3044,28.6543 46.3044,29.1543 47.5,29.5C 57.1159,28.4494 66.7826,28.4494 76.5,29.5C 76.5674,30.9587 76.2341,32.2921 75.5,33.5C 71.7657,33.3227 68.0991,33.6561 64.5,34.5C 64.2648,33.9033 63.7648,33.5699 63,33.5C 58.6273,35.0258 54.1273,35.6924 49.5,35.5C 51.6979,34.8347 54.0312,34.1681 56.5,33.5C 53.027,32.488 49.8603,32.488 47,33.5C 44.776,30.5198 41.9427,30.1865 38.5,32.5C 36.3921,31.8982 34.2254,31.5649 32,31.5C 26.5246,32.3898 21.1913,33.0565 16,33.5C 13.8024,31.6249 11.969,31.6249 10.5,33.5C 6.83787,33.6096 3.1712,33.6096 -0.5,33.5C -0.5,30.8333 -0.5,28.1667 -0.5,25.5C 0.495904,25.4142 1.32924,25.7476 2,26.5C 5.58954,26.1148 8.92287,25.1148 12,23.5C 13,23.8333 14,24.1667 15,24.5C 30.7919,23.4715 44.9586,22.8048 57.5,22.5C 57.8333,22.5 58.1667,22.5 58.5,22.5C 60.9201,22.2924 63.2534,22.6258 65.5,23.5C 67.0712,21.585 69.0712,20.585 71.5,20.5C 73.451,20.2267 74.951,20.8934 76,22.5C 78.7359,21.2728 81.5692,20.2728 84.5,19.5C 85.1924,20.0253 85.6924,20.6919 86,21.5C 87.4299,21.6938 88.9299,21.6938 90.5,21.5C 91.1924,22.0253 91.6924,22.6919 92,23.5C 93.4139,22.5868 94.9139,22.5868 96.5,23.5 Z"/></g>
<g><path style="opacity:1" fill="#7e6754" d="M 148.5,22.5 C 153.803,22.7475 157.469,25.2475 159.5,30C 157.613,30.1626 156.113,29.3293 155,27.5C 152.695,27.579 150.195,27.7457 147.5,28C 148.416,28.2784 149.082,28.7784 149.5,29.5C 145.742,30.1191 142.075,31.1191 138.5,32.5C 138.511,31.5585 138.011,30.8919 137,30.5C 132.23,34.0668 128.396,38.4001 125.5,43.5C 125.298,41.0108 125.798,38.6775 127,36.5C 130.145,33.3683 133.312,30.3683 136.5,27.5C 137.609,27.4431 138.609,27.1098 139.5,26.5C 142.122,24.3565 145.122,23.0231 148.5,22.5 Z"/></g>
<g><path style="opacity:1" fill="#a6866d" d="M 204.5,23.5 C 205.167,23.8333 205.833,24.1667 206.5,24.5C 210.881,26.6837 214.881,29.3504 218.5,32.5C 217.833,32.8333 217.167,33.1667 216.5,33.5C 214.597,33.2041 212.93,32.5375 211.5,31.5C 211.938,31.5654 212.272,31.3988 212.5,31C 209.34,28.9221 206.673,26.4221 204.5,23.5 Z"/></g>
<g><path style="opacity:1" fill="#f8d251" d="M 95.5,27.5 C 108.218,27.9495 121.551,27.9495 135.5,27.5C 135.833,27.5 136.167,27.5 136.5,27.5C 133.312,30.3683 130.145,33.3683 127,36.5C 125.798,38.6775 125.298,41.0108 125.5,43.5C 124.833,44.8333 124.167,46.1667 123.5,47.5C 121.5,47.5 119.5,47.5 117.5,47.5C 117.389,46.8826 117.056,46.3826 116.5,46C 118.531,45.3678 120.198,44.2012 121.5,42.5C 118.914,41.52 116.247,41.1866 113.5,41.5C 110.833,41.5 108.167,41.5 105.5,41.5C 103.396,41.7989 101.396,41.4656 99.5,40.5C 106.715,40.2199 113.382,38.2199 119.5,34.5C 114.704,32.4562 109.704,31.4562 104.5,31.5C 101.5,31.5 98.5,31.5 95.5,31.5C 88.8043,31.93 82.1376,32.5966 75.5,33.5C 76.2341,32.2921 76.5674,30.9587 76.5,29.5C 66.7826,28.4494 57.1159,28.4494 47.5,29.5C 46.3044,29.1543 46.3044,28.6543 47.5,28C 46.5,27.6667 45.5,27.3333 44.5,27C 49.1089,25.8044 53.2755,25.6377 57,26.5C 63.3333,25.8333 69.6667,25.1667 76,24.5C 77,25.5 78,26.5 79,27.5C 79.6667,26.1667 80.3333,26.1667 81,27.5C 81.6914,25.1088 82.6914,25.1088 84,27.5C 85.7698,26.7236 87.6031,26.8903 89.5,28C 88.3044,28.6543 88.3044,29.1543 89.5,29.5C 91.1727,27.9137 93.1727,27.2471 95.5,27.5 Z"/></g>
<g><path style="opacity:1" fill="#9f8068" d="M 163.5,18.5 C 164.304,20.8364 163.971,23.1698 162.5,25.5C 164.006,26.7472 165.506,26.7472 167,25.5C 167.333,26.5 167.667,27.5 168,28.5C 169.388,27.4464 170.888,27.2797 172.5,28C 171.483,29.0495 171.316,30.2161 172,31.5C 172.667,30.1667 173.333,30.1667 174,31.5C 174.946,34.7059 176.446,37.5393 178.5,40C 176.014,40.7051 176.014,41.5384 178.5,42.5C 178.414,43.4959 178.748,44.3292 179.5,45C 175.831,46.4085 175.831,48.0751 179.5,50C 178.289,51.1131 178.289,52.2798 179.5,53.5C 178.575,54.5624 177.575,54.5624 176.5,53.5C 176.499,52.2455 176.166,50.9122 175.5,49.5C 174.34,48.735 173.34,47.735 172.5,46.5C 173.935,41.8027 172.602,37.6361 168.5,34C 168.645,33.228 168.978,32.5613 169.5,32C 166.046,29.4462 163.38,30.1129 161.5,34C 162.712,35.1068 162.379,35.6068 160.5,35.5C 157.853,31.7671 154.187,29.7671 149.5,29.5C 149.082,28.7784 148.416,28.2784 147.5,28C 150.195,27.7457 152.695,27.579 155,27.5C 156.113,29.3293 157.613,30.1626 159.5,30C 157.469,25.2475 153.803,22.7475 148.5,22.5C 148.5,21.8333 148.833,21.5 149.5,21.5C 150.167,21.5 150.833,21.5 151.5,21.5C 155.479,20.5032 159.479,19.5032 163.5,18.5 Z"/></g>
<g><path style="opacity:1" fill="#fcf9ee" d="M 95.5,31.5 C 98.5,31.5 101.5,31.5 104.5,31.5C 106.148,32.9265 108.148,33.7599 110.5,34C 109.833,35 109.167,36 108.5,37C 105.384,38.1587 102.217,38.6587 99,38.5C 98.0853,37.6721 97.4186,36.6721 97,35.5C 96.7216,36.4158 96.2216,37.0825 95.5,37.5C 95.1788,35.9519 94.1788,35.2852 92.5,35.5C 92.3505,34.448 92.5172,33.448 93,32.5C 94.159,33.566 94.9924,33.2327 95.5,31.5 Z"/></g>
<g><path style="opacity:1" fill="#eb9635" d="M 49.5,35.5 C 44.1667,35.5 38.8333,35.5 33.5,35.5C 21.5426,35.7712 10.2092,36.1046 -0.5,36.5C -0.5,35.5 -0.5,34.5 -0.5,33.5C 3.1712,33.6096 6.83787,33.6096 10.5,33.5C 11.969,31.6249 13.8024,31.6249 16,33.5C 21.1913,33.0565 26.5246,32.3898 32,31.5C 34.2254,31.5649 36.3921,31.8982 38.5,32.5C 41.9427,30.1865 44.776,30.5198 47,33.5C 49.8603,32.488 53.027,32.488 56.5,33.5C 54.0312,34.1681 51.6979,34.8347 49.5,35.5 Z"/></g>
<g><path style="opacity:1" fill="#2b1f16" d="M 211.5,31.5 C 212.93,32.5375 214.597,33.2041 216.5,33.5C 221.627,35.7966 225.294,39.6299 227.5,45C 226.181,45.195 224.847,45.0283 223.5,44.5C 223.167,43.5 222.5,42.8333 221.5,42.5C 218.223,41.3673 214.723,40.7006 211,40.5C 208.456,40.336 206.29,41.0027 204.5,42.5C 201.907,40.2888 201.24,37.6221 202.5,34.5C 203.167,33.8333 203.833,33.1667 204.5,32.5C 206.607,31.5318 208.941,31.1984 211.5,31.5 Z"/></g>
<g><path style="opacity:1" fill="#fbf5c5" d="M 95.5,31.5 C 94.9924,33.2327 94.159,33.566 93,32.5C 92.5172,33.448 92.3505,34.448 92.5,35.5C 86.2947,36.1729 79.9613,36.0062 73.5,35C 74.4158,34.7216 75.0825,34.2216 75.5,33.5C 82.1376,32.5966 88.8043,31.93 95.5,31.5 Z"/></g>
<g><path style="opacity:1" fill="#fadb4b" d="M 64.5,34.5 C 66.449,36.563 68.7823,37.8964 71.5,38.5C 71.5,39.1667 71.8333,39.5 72.5,39.5C 69.7626,40.0969 67.096,40.0969 64.5,39.5C 64.6309,38.6236 64.2975,37.9569 63.5,37.5C 60.0802,36.9835 56.7469,37.6501 53.5,39.5C 52.8333,39.3333 52.1667,39.1667 51.5,39C 52.4506,38.2825 52.6172,37.4491 52,36.5C 49.6667,37.1667 47.3333,37.8333 45,38.5C 41.3287,37.6113 37.8287,37.6113 34.5,38.5C 32.4807,37.8671 32.1474,36.8671 33.5,35.5C 38.8333,35.5 44.1667,35.5 49.5,35.5C 54.1273,35.6924 58.6273,35.0258 63,33.5C 63.7648,33.5699 64.2648,33.9033 64.5,34.5 Z"/></g>
<g><path style="opacity:1" fill="#fcf6c2" d="M 104.5,31.5 C 109.704,31.4562 114.704,32.4562 119.5,34.5C 113.382,38.2199 106.715,40.2199 99.5,40.5C 101.396,41.4656 103.396,41.7989 105.5,41.5C 107.054,42.8946 106.721,43.5613 104.5,43.5C 99.4463,41.699 94.1129,41.0323 88.5,41.5C 88.5674,40.0413 88.2341,38.7079 87.5,37.5C 90.1667,37.5 92.8333,37.5 95.5,37.5C 96.2216,37.0825 96.7216,36.4158 97,35.5C 97.4186,36.6721 98.0853,37.6721 99,38.5C 102.217,38.6587 105.384,38.1587 108.5,37C 109.167,36 109.833,35 110.5,34C 108.148,33.7599 106.148,32.9265 104.5,31.5 Z"/></g>
<g><path style="opacity:1" fill="#f1ae4c" d="M 255.5,20.5 C 255.5,28.1667 255.5,35.8333 255.5,43.5C 251.164,43.4173 246.831,43.4173 242.5,43.5C 241.808,44.0253 241.308,44.6919 241,45.5C 240.692,44.6919 240.192,44.0253 239.5,43.5C 238.5,44.8333 237.5,44.8333 236.5,43.5C 235.808,44.0253 235.308,44.6919 235,45.5C 233.551,44.3859 232.217,43.3859 231,42.5C 229.961,43.2438 229.461,44.2438 229.5,45.5C 228.26,42.976 227.093,40.3093 226,37.5C 224.729,36.1175 223.229,35.1175 221.5,34.5C 221.369,33.6236 221.702,32.9569 222.5,32.5C 223.425,33.6405 224.259,33.6405 225,32.5C 225.333,33.1667 225.667,33.8333 226,34.5C 227.101,32.6061 228.434,31.9394 230,32.5C 233.243,33.4141 236.243,34.0807 239,34.5C 241.023,32.2307 241.856,29.5641 241.5,26.5C 240.448,26.6495 239.448,26.4828 238.5,26C 240.167,25.6667 241.833,25.3333 243.5,25C 239.865,25.0677 236.698,24.901 234,24.5C 230.589,25.2931 227.089,25.7931 223.5,26C 224.696,26.6543 224.696,27.1543 223.5,27.5C 222.522,27.0233 221.689,26.3567 221,25.5C 219.48,27.8345 217.98,27.6679 216.5,25C 217.416,24.7216 218.082,24.2216 218.5,23.5C 223.493,23.3043 227.826,22.971 231.5,22.5C 239.503,22.5481 247.503,21.8814 255.5,20.5 Z"/></g>
<g><path style="opacity:1" fill="#f8e67c" d="M 75.5,33.5 C 75.0825,34.2216 74.4158,34.7216 73.5,35C 79.9613,36.0062 86.2947,36.1729 92.5,35.5C 94.1788,35.2852 95.1788,35.9519 95.5,37.5C 92.8333,37.5 90.1667,37.5 87.5,37.5C 85.5,37.5 83.5,37.5 81.5,37.5C 78.0613,37.2529 74.728,37.5863 71.5,38.5C 68.7823,37.8964 66.449,36.563 64.5,34.5C 68.0991,33.6561 71.7657,33.3227 75.5,33.5 Z"/></g>
<g><path style="opacity:1" fill="#f8c147" d="M 33.5,35.5 C 32.1474,36.8671 32.4807,37.8671 34.5,38.5C 37.8287,37.6113 41.3287,37.6113 45,38.5C 47.3333,37.8333 49.6667,37.1667 52,36.5C 52.6172,37.4491 52.4506,38.2825 51.5,39C 52.1667,39.1667 52.8333,39.3333 53.5,39.5C 56.7469,37.6501 60.0802,36.9835 63.5,37.5C 64.2975,37.9569 64.6309,38.6236 64.5,39.5C 63.8333,39.8333 63.1667,40.1667 62.5,40.5C 52.0504,39.8875 41.8837,39.8875 32,40.5C 31.6667,39.5 31.3333,38.5 31,37.5C 26.905,40.9071 22.405,42.2404 17.5,41.5C 13.4454,41.8242 9.44539,41.4909 5.5,40.5C 5.19238,39.6919 4.69238,39.0253 4,38.5C 2.64387,39.3802 1.14387,39.7135 -0.5,39.5C -0.5,38.5 -0.5,37.5 -0.5,36.5C 10.2092,36.1046 21.5426,35.7712 33.5,35.5 Z"/></g>
<g><path style="opacity:1" fill="#fbf9ec" d="M 81.5,37.5 C 83.5,37.5 85.5,37.5 87.5,37.5C 88.2341,38.7079 88.5674,40.0413 88.5,41.5C 94.1129,41.0323 99.4463,41.699 104.5,43.5C 106.721,43.5613 107.054,42.8946 105.5,41.5C 108.167,41.5 110.833,41.5 113.5,41.5C 112.294,42.8804 112.627,44.0471 114.5,45C 113.175,44.8516 112.008,45.0183 111,45.5C 110.333,42.8333 109.667,42.8333 109,45.5C 107.391,44.8499 105.891,45.3499 104.5,47C 108.591,48.412 112.924,48.5787 117.5,47.5C 119.5,47.5 121.5,47.5 123.5,47.5C 123.167,48.5 122.5,49.1667 121.5,49.5C 114.65,51.1667 107.316,51.8334 99.5,51.5C 95.5,51.5 91.5,51.5 87.5,51.5C 85.1432,51.6633 82.8098,51.4966 80.5,51C 81.7119,49.8932 81.3786,49.3932 79.5,49.5C 78.5,49.5 77.5,49.5 76.5,49.5C 75.3424,48.0502 75.8424,47.0502 78,46.5C 79.9373,46.821 81.4373,45.821 82.5,43.5C 82.2563,41.45 81.923,39.45 81.5,37.5 Z"/></g>
<g><path style="opacity:1" fill="#e3cab4" d="M 211.5,37.5 C 212.919,36.5489 214.585,36.2155 216.5,36.5C 216.719,37.675 216.386,38.675 215.5,39.5C 214.476,38.1468 213.143,37.4802 211.5,37.5 Z"/></g>
<g><path style="opacity:1" fill="#f8c937" d="M 72.5,39.5 C 74.9124,39.244 76.5791,40.244 77.5,42.5C 75.2297,44.9748 72.563,46.9748 69.5,48.5C 71.7427,49.4742 74.076,49.8076 76.5,49.5C 77.5,49.5 78.5,49.5 79.5,49.5C 79.1667,50.1667 78.8333,50.8333 78.5,51.5C 72.3986,50.2995 68.732,52.6328 67.5,58.5C 70.7181,58.6509 71.0515,59.4842 68.5,61C 69.4158,61.2784 70.0825,61.7784 70.5,62.5C 68.7497,63.2328 67.083,63.5662 65.5,63.5C 63.0758,63.0728 60.4092,62.4061 57.5,61.5C 62.1833,61.2101 62.5167,59.3768 58.5,56C 60.0548,54.3542 61.7215,54.0209 63.5,55C 63.0426,54.586 62.7093,54.086 62.5,53.5C 63.2624,53.0894 64.2624,52.9227 65.5,53C 65.1667,52.6667 64.8333,52.3333 64.5,52C 61.905,51.7744 59.405,51.2744 57,50.5C 56,51.1667 55,51.8333 54,52.5C 50.7525,51.6661 47.4192,51.6661 44,52.5C 42.0194,52.3708 40.3528,51.7042 39,50.5C 38.3333,53.1667 37.6667,53.1667 37,50.5C 36.3333,51.8333 35.6667,51.8333 35,50.5C 34.3333,53.1667 33.6667,53.1667 33,50.5C 29.3527,51.1307 25.5194,51.1307 21.5,50.5C 19.1261,53.1552 17.1261,52.6552 15.5,49C 16.4158,48.7216 17.0825,48.2216 17.5,47.5C 33.2093,47.7907 49.376,47.7907 66,47.5C 67.032,45.8555 68.1987,45.5221 69.5,46.5C 69.8333,46.1667 70.1667,45.8333 70.5,45.5C 69.624,44.7492 68.624,44.2492 67.5,44C 68.938,43.7811 70.2713,43.2811 71.5,42.5C 68.3583,41.8326 65.3583,41.166 62.5,40.5C 63.1667,40.1667 63.8333,39.8333 64.5,39.5C 67.096,40.0969 69.7626,40.0969 72.5,39.5 Z"/></g>
<g><path style="opacity:1" fill="#534133" d="M 202.5,34.5 C 201.24,37.6221 201.907,40.2888 204.5,42.5C 202.838,43.9846 201.005,45.3179 199,46.5C 198.055,46.0946 197.388,45.428 197,44.5C 196.465,46.2705 195.631,46.6039 194.5,45.5C 196.454,41.234 199.121,37.5674 202.5,34.5 Z"/></g>
<g><path style="opacity:1" fill="#f69a2e" d="M 62.5,40.5 C 65.3583,41.166 68.3583,41.8326 71.5,42.5C 70.2713,43.2811 68.938,43.7811 67.5,44C 68.624,44.2492 69.624,44.7492 70.5,45.5C 70.1667,45.8333 69.8333,46.1667 69.5,46.5C 68.1987,45.5221 67.032,45.8555 66,47.5C 49.376,47.7907 33.2093,47.7907 17.5,47.5C 15.4727,47.6621 13.4727,47.4955 11.5,47C 11.8333,46.6667 12.1667,46.3333 12.5,46C 10.7289,43.8865 9.22889,44.0532 8,46.5C 6.81181,45.4366 6.31181,44.1033 6.5,42.5C 9.57884,42.2601 12.5788,42.5934 15.5,43.5C 16.5223,43.1445 17.189,42.4778 17.5,41.5C 22.405,42.2404 26.905,40.9071 31,37.5C 31.3333,38.5 31.6667,39.5 32,40.5C 41.8837,39.8875 52.0504,39.8875 62.5,40.5 Z"/></g>
<g><path style="opacity:1" fill="#fde3b7" d="M 187.5,57.5 C 187.608,55.4862 186.942,53.8195 185.5,52.5C 185.26,48.0899 184.927,43.9232 184.5,40C 186.016,38.103 186.683,35.9363 186.5,33.5C 189.121,33.4772 190.455,34.8105 190.5,37.5C 190.06,39.7649 189.394,41.9316 188.5,44C 191.375,49.6702 192.875,55.5036 193,61.5C 193.423,60.0439 194.256,59.5439 195.5,60C 194.167,60.6667 194.167,61.3333 195.5,62C 191.858,65.1891 190.025,64.0224 190,58.5C 189.667,58.8333 189.333,59.1667 189,59.5C 188.722,58.5842 188.222,57.9175 187.5,57.5 Z"/></g>
<g><path style="opacity:1" fill="#f9a133" d="M 255.5,43.5 C 255.5,46.1667 255.5,48.8333 255.5,51.5C 248.481,51.074 241.147,51.074 233.5,51.5C 231.782,49.7772 230.449,47.7772 229.5,45.5C 229.461,44.2438 229.961,43.2438 231,42.5C 232.217,43.3859 233.551,44.3859 235,45.5C 235.308,44.6919 235.808,44.0253 236.5,43.5C 237.5,44.8333 238.5,44.8333 239.5,43.5C 240.192,44.0253 240.692,44.6919 241,45.5C 241.308,44.6919 241.808,44.0253 242.5,43.5C 246.831,43.4173 251.164,43.4173 255.5,43.5 Z"/></g>
<g><path style="opacity:1" fill="#866a55" d="M 204.5,32.5 C 203.833,33.1667 203.167,33.8333 202.5,34.5C 199.121,37.5674 196.454,41.234 194.5,45.5C 195.631,46.6039 196.465,46.2705 197,44.5C 197.388,45.428 198.055,46.0946 199,46.5C 201.005,45.3179 202.838,43.9846 204.5,42.5C 206.29,41.0027 208.456,40.336 211,40.5C 214.723,40.7006 218.223,41.3673 221.5,42.5C 220.833,42.5 220.167,42.5 219.5,42.5C 216.468,42.495 213.468,42.1616 210.5,41.5C 207.577,43.2374 204.744,45.2374 202,47.5C 199.361,48.9944 196.528,49.6611 193.5,49.5C 193.5,46.1667 193.5,42.8333 193.5,39.5C 195.859,35.1459 199.526,32.8125 204.5,32.5 Z"/></g>
<g><path style="opacity:1" fill="#fcf4b8" d="M 113.5,41.5 C 116.247,41.1866 118.914,41.52 121.5,42.5C 120.198,44.2012 118.531,45.3678 116.5,46C 117.056,46.3826 117.389,46.8826 117.5,47.5C 112.924,48.5787 108.591,48.412 104.5,47C 105.891,45.3499 107.391,44.8499 109,45.5C 109.667,42.8333 110.333,42.8333 111,45.5C 112.008,45.0183 113.175,44.8516 114.5,45C 112.627,44.0471 112.294,42.8804 113.5,41.5 Z"/></g>
<g><path style="opacity:1" fill="#fbf2b0" d="M 81.5,37.5 C 81.923,39.45 82.2563,41.45 82.5,43.5C 81.4373,45.821 79.9373,46.821 78,46.5C 75.8424,47.0502 75.3424,48.0502 76.5,49.5C 74.076,49.8076 71.7427,49.4742 69.5,48.5C 72.563,46.9748 75.2297,44.9748 77.5,42.5C 76.5791,40.244 74.9124,39.244 72.5,39.5C 71.8333,39.5 71.5,39.1667 71.5,38.5C 74.728,37.5863 78.0613,37.2529 81.5,37.5 Z"/></g>
<g><path style="opacity:1" fill="#f7c699" d="M 191.5,20.5 C 196.057,20.617 200.391,21.617 204.5,23.5C 206.673,26.4221 209.34,28.9221 212.5,31C 212.272,31.3988 211.938,31.5654 211.5,31.5C 208.941,31.1984 206.607,31.5318 204.5,32.5C 199.526,32.8125 195.859,35.1459 193.5,39.5C 192.357,42.9758 192.19,46.6425 193,50.5C 194.53,52.2262 195.53,54.2262 196,56.5C 196.75,57.1258 197.584,57.6258 198.5,58C 198.167,58.3333 197.833,58.6667 197.5,59C 200.257,59.782 202.757,59.282 205,57.5C 205.805,59.9011 206.638,59.7344 207.5,57C 206.5,56.6667 205.5,56.3333 204.5,56C 205.662,55.1729 206.829,54.3396 208,53.5C 209.548,54.684 211.048,54.5173 212.5,53C 211.5,52.6667 210.5,52.3333 209.5,52C 211.68,49.2277 213.68,46.3944 215.5,43.5C 215.881,44.9311 216.881,45.7645 218.5,46C 217.898,48.0363 216.898,49.8697 215.5,51.5C 215.709,52.086 216.043,52.586 216.5,53C 213.911,54.9218 213.411,57.0885 215,59.5C 215.333,59.1667 215.667,58.8333 216,58.5C 217.691,60.7087 217.524,62.5421 215.5,64C 218.284,64.4362 219.45,65.9362 219,68.5C 217.442,67.6548 216.442,68.3215 216,70.5C 214.795,69.9288 213.628,69.2621 212.5,68.5C 213.641,67.5745 213.641,66.7412 212.5,66C 210.479,65.8598 208.645,65.6932 207,65.5C 206.383,66.4491 206.549,67.2825 207.5,68C 205.461,71.3058 203.461,71.3058 201.5,68C 201.645,67.228 201.978,66.5613 202.5,66C 200.714,65.2155 199.214,64.0488 198,62.5C 196.256,63.6492 196.089,64.9825 197.5,66.5C 197,66.8333 196.5,67.1667 196,67.5C 193.362,64.4984 191.195,65.4984 189.5,70.5C 192.208,72.4357 195.208,72.9357 198.5,72C 196.993,71.1627 196.493,69.9961 197,68.5C 200.193,69.4931 202.359,71.4931 203.5,74.5C 203.182,75.6473 202.516,76.4806 201.5,77C 203.141,78.129 204.141,79.629 204.5,81.5C 202.567,82.6417 201.067,84.3083 200,86.5C 199.667,86.1667 199.333,85.8333 199,85.5C 199.594,87.5095 199.427,89.5095 198.5,91.5C 194.061,92.6703 193.728,94.1703 197.5,96C 195.053,97.2289 194.887,98.7289 197,100.5C 198.133,98.7888 199.633,98.2888 201.5,99C 200.692,99.3076 200.025,99.8076 199.5,100.5C 200.729,101.281 202.062,101.781 203.5,102C 202.584,102.278 201.918,102.778 201.5,103.5C 200.803,103.376 199.97,103.376 199,103.5C 198.309,101.109 197.309,101.109 196,103.5C 195.064,101.292 193.398,99.9582 191,99.5C 190.283,100.044 189.783,100.711 189.5,101.5C 187.185,100.446 185.185,98.9456 183.5,97C 184.866,95.4002 185.866,93.5668 186.5,91.5C 191.716,88.2683 196.716,84.7683 201.5,81C 199.991,79.3264 199.324,77.6597 199.5,76C 194.896,74.9393 190.229,74.2727 185.5,74C 186.833,73.6667 188.167,73.3333 189.5,73C 187.176,71.1755 186.843,69.0088 188.5,66.5C 189.167,66.5 189.5,66.1667 189.5,65.5C 190.043,65.44 190.376,65.1067 190.5,64.5C 189.675,63.6143 188.675,63.281 187.5,63.5C 186.62,61.3888 186.62,59.3888 187.5,57.5C 188.222,57.9175 188.722,58.5842 189,59.5C 189.333,59.1667 189.667,58.8333 190,58.5C 190.025,64.0224 191.858,65.1891 195.5,62C 194.167,61.3333 194.167,60.6667 195.5,60C 194.256,59.5439 193.423,60.0439 193,61.5C 192.875,55.5036 191.375,49.6702 188.5,44C 189.394,41.9316 190.06,39.7649 190.5,37.5C 190.455,34.8105 189.121,33.4772 186.5,33.5C 186.683,35.9363 186.016,38.103 184.5,40C 184.927,43.9232 185.26,48.0899 185.5,52.5C 182.313,50.5868 181.646,47.9202 183.5,44.5C 181.196,37.4102 181.362,30.4102 184,23.5C 184.454,26.6115 186.287,28.2782 189.5,28.5C 190.842,27.0977 191.676,27.4311 192,29.5C 194.056,26.691 193.223,25.3577 189.5,25.5C 189.077,23.2188 189.744,21.5521 191.5,20.5 Z"/></g>
<g><path style="opacity:1" fill="#7a6552" d="M 175.5,49.5 C 169.647,48.5861 164.98,50.7528 161.5,56C 162.5,56.3333 163.5,56.6667 164.5,57C 163.056,58.7635 162.056,60.7635 161.5,63C 164.264,63.0058 166.264,64.1725 167.5,66.5C 165.856,66.7135 164.356,66.3802 163,65.5C 159.847,67.8322 156.347,69.4989 152.5,70.5C 155.234,70.4992 158.234,70.6658 161.5,71C 156.083,72.0082 151.083,73.1749 146.5,74.5C 144.844,75.1465 143.177,75.8131 141.5,76.5C 131.517,73.6065 131.851,71.4398 142.5,70C 141.376,69.7508 140.376,69.2508 139.5,68.5C 139.082,65.8108 139.582,63.1441 141,60.5C 141.131,64.3917 142.631,65.225 145.5,63C 144.429,61.1745 145.096,60.0079 147.5,59.5C 149.612,60.1995 151.612,59.6995 153.5,58C 155.134,57.5065 156.801,57.3398 158.5,57.5C 159.052,55.6693 159.052,54.0026 158.5,52.5C 159.025,51.8076 159.692,51.3076 160.5,51C 159.874,50.2496 159.374,49.4162 159,48.5C 156.562,49.8663 156.062,49.3663 157.5,47C 156.97,44.5568 155.97,42.3901 154.5,40.5C 158.485,41.1518 160.819,43.4852 161.5,47.5C 161.833,47.3333 162.167,47.1667 162.5,47C 163.218,44.5393 163.885,42.0393 164.5,39.5C 163.632,37.603 162.299,36.2696 160.5,35.5C 162.379,35.6068 162.712,35.1068 161.5,34C 163.38,30.1129 166.046,29.4462 169.5,32C 168.978,32.5613 168.645,33.228 168.5,34C 172.602,37.6361 173.935,41.8027 172.5,46.5C 173.34,47.735 174.34,48.735 175.5,49.5 Z"/></g>
<g><path style="opacity:1" fill="#faa62a" d="M 17.5,41.5 C 17.189,42.4778 16.5223,43.1445 15.5,43.5C 12.5788,42.5934 9.57884,42.2601 6.5,42.5C 6.31181,44.1033 6.81181,45.4366 8,46.5C 9.22889,44.0532 10.7289,43.8865 12.5,46C 12.1667,46.3333 11.8333,46.6667 11.5,47C 13.4727,47.4955 15.4727,47.6621 17.5,47.5C 17.0825,48.2216 16.4158,48.7216 15.5,49C 17.1261,52.6552 19.1261,53.1552 21.5,50.5C 25.5194,51.1307 29.3527,51.1307 33,50.5C 33.6667,53.1667 34.3333,53.1667 35,50.5C 35.6667,51.8333 36.3333,51.8333 37,50.5C 37.6667,53.1667 38.3333,53.1667 39,50.5C 40.3528,51.7042 42.0194,52.3708 44,52.5C 47.4192,51.6661 50.7525,51.6661 54,52.5C 55,51.8333 56,51.1667 57,50.5C 59.405,51.2744 61.905,51.7744 64.5,52C 64.8333,52.3333 65.1667,52.6667 65.5,53C 64.2624,52.9227 63.2624,53.0894 62.5,53.5C 62.7093,54.086 63.0426,54.586 63.5,55C 61.7215,54.0209 60.0548,54.3542 58.5,56C 62.5167,59.3768 62.1833,61.2101 57.5,61.5C 54.2869,61.19 51.2869,61.5233 48.5,62.5C 48.1667,62.5 47.8333,62.5 47.5,62.5C 47.0825,61.7784 46.4158,61.2784 45.5,61C 46.1667,60.6667 46.8333,60.3333 47.5,60C 46.2161,59.3162 45.0495,59.4829 44,60.5C 43.0853,59.6721 42.4186,58.6721 42,57.5C 40.8631,58.364 39.5298,59.364 38,60.5C 36.513,59.7471 36.3463,58.9138 37.5,58C 35.6332,57.2888 34.1332,57.7888 33,59.5C 32.5814,58.3279 31.9147,57.3279 31,56.5C 24.7263,56.4546 18.0596,56.7879 11,57.5C 7.10851,55.8151 3.27518,55.1484 -0.5,55.5C -0.5,50.1667 -0.5,44.8333 -0.5,39.5C 1.14387,39.7135 2.64387,39.3802 4,38.5C 4.69238,39.0253 5.19238,39.6919 5.5,40.5C 9.44539,41.4909 13.4454,41.8242 17.5,41.5 Z"/></g>
<g><path style="opacity:1" fill="#deae85" d="M 193.5,39.5 C 193.5,42.8333 193.5,46.1667 193.5,49.5C 196.528,49.6611 199.361,48.9944 202,47.5C 204.744,45.2374 207.577,43.2374 210.5,41.5C 213.468,42.1616 216.468,42.495 219.5,42.5C 218.432,43.4345 217.099,43.7678 215.5,43.5C 213.68,46.3944 211.68,49.2277 209.5,52C 210.5,52.3333 211.5,52.6667 212.5,53C 211.048,54.5173 209.548,54.684 208,53.5C 206.829,54.3396 205.662,55.1729 204.5,56C 205.5,56.3333 206.5,56.6667 207.5,57C 206.638,59.7344 205.805,59.9011 205,57.5C 202.757,59.282 200.257,59.782 197.5,59C 197.833,58.6667 198.167,58.3333 198.5,58C 197.584,57.6258 196.75,57.1258 196,56.5C 195.53,54.2262 194.53,52.2262 193,50.5C 192.19,46.6425 192.357,42.9758 193.5,39.5 Z"/></g>
<g><path style="opacity:1" fill="#fbef97" d="M 79.5,49.5 C 81.3786,49.3932 81.7119,49.8932 80.5,51C 82.8098,51.4966 85.1432,51.6633 87.5,51.5C 87.8333,52.8333 88.1667,54.1667 88.5,55.5C 87.2209,56.968 85.5542,57.6347 83.5,57.5C 83.9371,55.9256 84.9371,54.7589 86.5,54C 83.4956,53.8827 80.829,53.0493 78.5,51.5C 78.8333,50.8333 79.1667,50.1667 79.5,49.5 Z"/></g>
<g><path style="opacity:1" fill="#fcf5c1" d="M 87.5,51.5 C 91.5,51.5 95.5,51.5 99.5,51.5C 99.1667,52.1667 98.8333,52.8333 98.5,53.5C 96.6005,54.3511 94.4338,54.3511 92,53.5C 91.1841,54.8228 90.0174,55.4894 88.5,55.5C 88.1667,54.1667 87.8333,52.8333 87.5,51.5 Z"/></g>
<g><path style="opacity:1" fill="#f8e88d" d="M 121.5,49.5 C 121.771,51.3797 121.104,52.713 119.5,53.5C 118.504,53.4142 117.671,53.7476 117,54.5C 111.686,52.3448 106.519,52.1781 101.5,54C 102.056,54.3826 102.389,54.8826 102.5,55.5C 100.801,55.4729 99.4674,54.8062 98.5,53.5C 98.8333,52.8333 99.1667,52.1667 99.5,51.5C 107.316,51.8334 114.65,51.1667 121.5,49.5 Z"/></g>
<g><path style="opacity:1" fill="#f5d12d" d="M 119.5,53.5 C 118.585,55.7541 117.252,57.7541 115.5,59.5C 111.932,58.7149 108.599,57.3816 105.5,55.5C 104.5,55.5 103.5,55.5 102.5,55.5C 102.389,54.8826 102.056,54.3826 101.5,54C 106.519,52.1781 111.686,52.3448 117,54.5C 117.671,53.7476 118.504,53.4142 119.5,53.5 Z"/></g>
<g><path style="opacity:1" fill="#614937" d="M 218.5,32.5 C 219.5,33.1667 220.5,33.8333 221.5,34.5C 223.229,35.1175 224.729,36.1175 226,37.5C 227.093,40.3093 228.26,42.976 229.5,45.5C 230.449,47.7772 231.782,49.7772 233.5,51.5C 234.578,54.4021 235.244,57.4021 235.5,60.5C 235.5,61.1667 235.5,61.8333 235.5,62.5C 235.566,66.559 235.733,70.559 236,74.5C 235.722,73.5842 235.222,72.9175 234.5,72.5C 230.265,65.8607 228.098,58.5273 228,50.5C 226.668,48.34 225.168,46.34 223.5,44.5C 224.847,45.0283 226.181,45.195 227.5,45C 225.294,39.6299 221.627,35.7966 216.5,33.5C 217.167,33.1667 217.833,32.8333 218.5,32.5 Z"/></g>
<g><path style="opacity:1" fill="#fbf9eb" d="M 98.5,53.5 C 99.4674,54.8062 100.801,55.4729 102.5,55.5C 103.5,55.5 104.5,55.5 105.5,55.5C 105.351,56.552 105.517,57.552 106,58.5C 108.209,58.9892 110.042,59.9892 111.5,61.5C 110.833,61.5 110.167,61.5 109.5,61.5C 106.813,61.3359 104.146,61.5026 101.5,62C 100.584,62.2784 99.9175,62.7784 99.5,63.5C 98.8779,65.4557 97.5446,66.789 95.5,67.5C 93.5008,66.4924 91.8342,65.159 90.5,63.5C 90.6107,62.8826 90.944,62.3826 91.5,62C 88.7737,61.8184 86.1071,61.3184 83.5,60.5C 84.7914,59.4728 84.7914,58.4728 83.5,57.5C 85.5542,57.6347 87.2209,56.968 88.5,55.5C 90.0174,55.4894 91.1841,54.8228 92,53.5C 94.4338,54.3511 96.6005,54.3511 98.5,53.5 Z"/></g>
<g><path style="opacity:1" fill="#523b2b" d="M 149.5,29.5 C 154.187,29.7671 157.853,31.7671 160.5,35.5C 162.299,36.2696 163.632,37.603 164.5,39.5C 163.885,42.0393 163.218,44.5393 162.5,47C 162.167,47.1667 161.833,47.3333 161.5,47.5C 160.819,43.4852 158.485,41.1518 154.5,40.5C 153.833,40.5 153.5,40.1667 153.5,39.5C 149.766,39.3227 146.099,39.6561 142.5,40.5C 140.236,41.2186 137.903,41.552 135.5,41.5C 135.33,42.8221 135.663,43.9887 136.5,45C 133.486,44.8551 130.486,44.3551 127.5,43.5C 123.792,49.249 121.125,55.5823 119.5,62.5C 122.122,66.5684 121.788,70.4017 118.5,74C 119.566,75.159 119.233,75.9924 117.5,76.5C 115.609,71.7031 114.609,66.7031 114.5,61.5C 114.833,60.8333 115.167,60.1667 115.5,59.5C 117.252,57.7541 118.585,55.7541 119.5,53.5C 121.104,52.713 121.771,51.3797 121.5,49.5C 122.5,49.1667 123.167,48.5 123.5,47.5C 124.167,46.1667 124.833,44.8333 125.5,43.5C 128.396,38.4001 132.23,34.0668 137,30.5C 138.011,30.8919 138.511,31.5585 138.5,32.5C 142.075,31.1191 145.742,30.1191 149.5,29.5 Z"/></g>
<g><path style="opacity:1" fill="#130a06" d="M 153.5,39.5 C 149.61,38.4455 145.61,38.2788 141.5,39C 142.418,35.247 144.751,33.0804 148.5,32.5C 151.314,33.7675 154.314,34.6008 157.5,35C 150.297,35.1981 149.964,36.1981 156.5,38C 155.473,38.5133 154.473,39.0133 153.5,39.5 Z"/></g>
<g><path style="opacity:1" fill="#6a4c3b" d="M 175.5,49.5 C 176.166,50.9122 176.499,52.2455 176.5,53.5C 175.402,54.397 175.402,55.2303 176.5,56C 170.784,57.7923 169.951,60.2923 174,63.5C 174.333,65.1667 174.667,66.8333 175,68.5C 177.362,69.3524 179.195,70.8524 180.5,73C 178.38,76.1254 178.547,79.2921 181,82.5C 183.277,81.8828 185.444,81.2161 187.5,80.5C 189.527,80.3379 191.527,80.5045 193.5,81C 190.442,82.0146 187.442,83.1813 184.5,84.5C 183.035,83.3913 182.035,83.8913 181.5,86C 179.414,86.3153 177.414,86.8153 175.5,87.5C 175.189,86.5222 174.522,85.8555 173.5,85.5C 171.191,86.9327 169.691,86.266 169,83.5C 168.667,83.8333 168.333,84.1667 168,84.5C 164.941,83.2581 161.941,81.9247 159,80.5C 157.718,86.8 155.885,86.8 153.5,80.5C 154.337,78.4947 155.837,77.4947 158,77.5C 163.381,79.2404 168.881,80.2404 174.5,80.5C 174.67,79.1779 174.337,78.0113 173.5,77C 174.308,76.6924 174.975,76.1924 175.5,75.5C 173.113,72.1214 170.447,69.1214 167.5,66.5C 166.264,64.1725 164.264,63.0058 161.5,63C 162.056,60.7635 163.056,58.7635 164.5,57C 163.5,56.6667 162.5,56.3333 161.5,56C 164.98,50.7528 169.647,48.5861 175.5,49.5 Z"/></g>
<g><path style="opacity:1" fill="#f99627" d="M -0.5,55.5 C 3.27518,55.1484 7.10851,55.8151 11,57.5C 18.0596,56.7879 24.7263,56.4546 31,56.5C 31.9147,57.3279 32.5814,58.3279 33,59.5C 34.1332,57.7888 35.6332,57.2888 37.5,58C 36.3463,58.9138 36.513,59.7471 38,60.5C 39.5298,59.364 40.8631,58.364 42,57.5C 42.4186,58.6721 43.0853,59.6721 44,60.5C 45.0495,59.4829 46.2161,59.3162 47.5,60C 46.8333,60.3333 46.1667,60.6667 45.5,61C 46.4158,61.2784 47.0825,61.7784 47.5,62.5C 34.8289,62.6666 22.1623,62.4999 9.5,62C 8.23409,61.6905 7.06743,61.1905 6,60.5C 3.72279,60.1606 1.55612,60.8273 -0.5,62.5C -0.5,60.1667 -0.5,57.8333 -0.5,55.5 Z"/></g>
<g><path style="opacity:1" fill="#d47727" d="M 255.5,51.5 C 255.5,54.1667 255.5,56.8333 255.5,59.5C 248.798,59.3357 242.131,59.669 235.5,60.5C 235.244,57.4021 234.578,54.4021 233.5,51.5C 241.147,51.074 248.481,51.074 255.5,51.5 Z"/></g>
<g><path style="opacity:1" fill="#f9ed9a" d="M 105.5,55.5 C 108.599,57.3816 111.932,58.7149 115.5,59.5C 115.167,60.1667 114.833,60.8333 114.5,61.5C 113.833,61.5 113.167,61.5 112.5,61.5C 112.167,61.5 111.833,61.5 111.5,61.5C 110.042,59.9892 108.209,58.9892 106,58.5C 105.517,57.552 105.351,56.552 105.5,55.5 Z"/></g>
<g><path style="opacity:1" fill="#be8260" d="M 182.5,54.5 C 183.601,55.8484 184.601,57.3484 185.5,59C 184.044,59.4226 183.544,60.2559 184,61.5C 185.5,63.4687 187.333,64.802 189.5,65.5C 189.5,66.1667 189.167,66.5 188.5,66.5C 186.97,67.2112 185.637,68.2112 184.5,69.5C 184.421,68.0695 184.754,66.7362 185.5,65.5C 183.562,62.7909 182.229,63.1243 181.5,66.5C 183.44,69.1961 182.773,70.5294 179.5,70.5C 179.5,67.5 179.5,64.5 179.5,61.5C 178.5,61.5 177.5,61.5 176.5,61.5C 176.413,58.4017 176.913,58.0684 178,60.5C 178.317,58.6992 178.984,58.3659 180,59.5C 181.12,57.9698 181.954,56.3032 182.5,54.5 Z"/></g>
<g><path style="opacity:1" fill="#764423" d="M 255.5,59.5 C 255.5,60.8333 255.5,62.1667 255.5,63.5C 253.8,63.3739 252.3,62.7073 251,61.5C 250,62.1667 249,62.8333 248,63.5C 243.831,62.9639 239.664,62.6305 235.5,62.5C 235.5,61.8333 235.5,61.1667 235.5,60.5C 242.131,59.669 248.798,59.3357 255.5,59.5 Z"/></g>
<g><path style="opacity:1" fill="#f9d93a" d="M 78.5,51.5 C 80.829,53.0493 83.4956,53.8827 86.5,54C 84.9371,54.7589 83.9371,55.9256 83.5,57.5C 79.8183,57.3347 76.1516,57.5014 72.5,58C 74.3703,58.9754 76.3703,59.4754 78.5,59.5C 79.4287,60.6888 79.762,62.0222 79.5,63.5C 77.2362,62.7814 74.9029,62.448 72.5,62.5C 71.6043,63.5063 70.9377,63.5063 70.5,62.5C 70.0825,61.7784 69.4158,61.2784 68.5,61C 71.0515,59.4842 70.7181,58.6509 67.5,58.5C 68.732,52.6328 72.3986,50.2995 78.5,51.5 Z"/></g>
<g><path style="opacity:1" fill="#f9eeb2" d="M 83.5,57.5 C 84.7914,58.4728 84.7914,59.4728 83.5,60.5C 86.1071,61.3184 88.7737,61.8184 91.5,62C 90.944,62.3826 90.6107,62.8826 90.5,63.5C 86.6051,62.6158 82.9385,62.6158 79.5,63.5C 79.762,62.0222 79.4287,60.6888 78.5,59.5C 76.3703,59.4754 74.3703,58.9754 72.5,58C 76.1516,57.5014 79.8183,57.3347 83.5,57.5 Z"/></g>
<g><path style="opacity:1" fill="#d3731e" d="M 47.5,62.5 C 47.8333,62.5 48.1667,62.5 48.5,62.5C 49.1667,62.5 49.8333,62.5 50.5,62.5C 47.0381,63.4816 43.3714,63.815 39.5,63.5C 32.1667,63.5 24.8333,63.5 17.5,63.5C 11.5,63.5 5.5,63.5 -0.5,63.5C -0.5,63.1667 -0.5,62.8333 -0.5,62.5C 1.55612,60.8273 3.72279,60.1606 6,60.5C 7.06743,61.1905 8.23409,61.6905 9.5,62C 22.1623,62.4999 34.8289,62.6666 47.5,62.5 Z"/></g>
<g><path style="opacity:1" fill="#f6e687" d="M 109.5,61.5 C 107.898,63.0739 105.898,63.7406 103.5,63.5C 102.167,63.5 100.833,63.5 99.5,63.5C 99.9175,62.7784 100.584,62.2784 101.5,62C 104.146,61.5026 106.813,61.3359 109.5,61.5 Z"/></g>
<g><path style="opacity:1" fill="#ab6f45" d="M 17.5,63.5 C 24.8333,63.5 32.1667,63.5 39.5,63.5C 37.1578,64.0082 34.9912,65.0082 33,66.5C 32.195,64.0989 31.3617,64.2656 30.5,67C 34.5,67.6667 34.5,68.3333 30.5,69C 31.9882,70.7172 33.8215,71.8839 36,72.5C 36.8068,68.551 37.3068,68.551 37.5,72.5C 44.5692,72.7433 44.9026,73.5766 38.5,75C 43.4252,75.0487 44.4252,76.882 41.5,80.5C 42.6016,81.1757 43.6016,81.8423 44.5,82.5C 38.9203,82.5128 32.9203,82.8461 26.5,83.5C 27.0253,84.1924 27.6919,84.6924 28.5,85C 27.244,85.4169 26.5774,86.2502 26.5,87.5C 25.8485,86.9094 25.1818,86.2427 24.5,85.5C 23.914,85.7093 23.414,86.0426 23,86.5C 22.7811,85.062 22.2811,83.7287 21.5,82.5C 20.8076,83.0253 20.3076,83.6919 20,84.5C 19.6258,83.5838 19.1258,82.7504 18.5,82C 19.1258,81.2496 19.6258,80.4162 20,79.5C 20.9138,80.6537 21.7471,80.487 22.5,79C 21.8742,78.2496 21.3742,77.4162 21,76.5C 19.8231,78.1757 18.3231,79.5091 16.5,80.5C 17.5063,81.3957 17.5063,82.0623 16.5,82.5C 15.6143,81.675 15.281,80.675 15.5,79.5C 14.1266,79.6567 12.7932,79.49 11.5,79C 14.2321,78.587 16.8987,77.9203 19.5,77C 19.1667,76.6667 18.8333,76.3333 18.5,76C 21.3176,75.1605 23.4843,75.9938 25,78.5C 25.3742,77.5838 25.8742,76.7504 26.5,76C 28.8333,75.6667 31.1667,75.3333 33.5,75C 28.9643,74.0597 24.4643,72.893 20,71.5C 19.6924,72.3081 19.1924,72.9747 18.5,73.5C 13.9445,73.0552 9.27786,73.0552 4.5,73.5C 3.83333,73.1667 3.16667,72.8333 2.5,72.5C 3.2739,71.2888 4.10723,71.2888 5,72.5C 9.31786,71.7964 13.1512,70.6297 16.5,69C 15.6383,66.2656 14.805,66.0989 14,68.5C 12.8118,67.4366 12.3118,66.1033 12.5,64.5C 14.4147,64.7845 16.0813,64.4511 17.5,63.5 Z"/></g>
<g><path style="opacity:1" fill="#f2a948" d="M 70.5,62.5 C 70.9377,63.5063 71.6043,63.5063 72.5,62.5C 73.1534,63.8068 73.8201,65.1401 74.5,66.5C 73.9747,67.1924 73.3081,67.6924 72.5,68C 74.1341,68.4935 75.8008,68.6602 77.5,68.5C 77.6495,69.552 77.4828,70.552 77,71.5C 76.3457,70.3044 75.8457,70.3044 75.5,71.5C 78.4666,72.9887 81.1332,74.822 83.5,77C 85.0368,78.1096 85.7035,79.6096 85.5,81.5C 79.6662,81.2691 73.9995,81.2691 68.5,81.5C 70.9965,79.4424 70.3298,78.2757 66.5,78C 68.2556,77.7978 69.9223,77.2978 71.5,76.5C 68.9302,75.7771 66.5968,74.6104 64.5,73C 71.1667,72 71.1667,71 64.5,70C 62.8333,68.6667 61.1667,67.3333 59.5,66C 61.7363,65.7355 63.7363,64.9021 65.5,63.5C 67.083,63.5662 68.7497,63.2328 70.5,62.5 Z"/></g>
<g><path style="opacity:1" fill="#9e6d54" d="M 178.5,42.5 C 180.285,42.9256 181.285,44.0922 181.5,46C 180.021,49.0568 180.354,51.8902 182.5,54.5C 181.954,56.3032 181.12,57.9698 180,59.5C 178.984,58.3659 178.317,58.6992 178,60.5C 176.913,58.0684 176.413,58.4017 176.5,61.5C 177.5,61.5 178.5,61.5 179.5,61.5C 179.5,64.5 179.5,67.5 179.5,70.5C 182.773,70.5294 183.44,69.1961 181.5,66.5C 182.229,63.1243 183.562,62.7909 185.5,65.5C 184.754,66.7362 184.421,68.0695 184.5,69.5C 183.77,70.7124 182.77,71.7124 181.5,72.5C 182.742,74.7328 184.076,76.8995 185.5,79C 185.167,79.3333 184.833,79.6667 184.5,80C 185.448,80.4828 186.448,80.6495 187.5,80.5C 185.444,81.2161 183.277,81.8828 181,82.5C 178.547,79.2921 178.38,76.1254 180.5,73C 179.195,70.8524 177.362,69.3524 175,68.5C 174.667,66.8333 174.333,65.1667 174,63.5C 169.951,60.2923 170.784,57.7923 176.5,56C 175.402,55.2303 175.402,54.397 176.5,53.5C 177.575,54.5624 178.575,54.5624 179.5,53.5C 178.289,52.2798 178.289,51.1131 179.5,50C 175.831,48.0751 175.831,46.4085 179.5,45C 178.748,44.3292 178.414,43.4959 178.5,42.5 Z"/></g>
<g><path style="opacity:1" fill="#f8c147" d="M 109.5,61.5 C 110.167,61.5 110.833,61.5 111.5,61.5C 111.833,61.5 112.167,61.5 112.5,61.5C 111.209,62.4728 111.209,63.4728 112.5,64.5C 111.975,65.1924 111.308,65.6924 110.5,66C 111.634,67.016 111.301,67.6827 109.5,68C 112.028,69.3159 112.028,70.4826 109.5,71.5C 111.119,71.9048 113.119,72.4048 115.5,73C 113.111,74.0961 110.611,74.9294 108,75.5C 107.667,75.1667 107.333,74.8333 107,74.5C 105.92,76.5535 105.086,78.7202 104.5,81C 101.338,81.6015 98.3378,81.1015 95.5,79.5C 98.3206,78.1582 98.1539,77.4916 95,77.5C 91.8461,77.4916 91.6794,78.1582 94.5,79.5C 93.7997,79.7871 93.1331,80.1205 92.5,80.5C 90.2201,80.3538 87.8868,80.6871 85.5,81.5C 85.7035,79.6096 85.0368,78.1096 83.5,77C 81.1332,74.822 78.4666,72.9887 75.5,71.5C 75.8457,70.3044 76.3457,70.3044 77,71.5C 77.4828,70.552 77.6495,69.552 77.5,68.5C 75.8008,68.6602 74.1341,68.4935 72.5,68C 73.3081,67.6924 73.9747,67.1924 74.5,66.5C 73.8201,65.1401 73.1534,63.8068 72.5,62.5C 74.9029,62.448 77.2362,62.7814 79.5,63.5C 79.5652,65.6957 80.2319,67.6957 81.5,69.5C 82.5063,69.0623 82.5063,68.3957 81.5,67.5C 82.7598,66.6184 83.9264,65.6184 85,64.5C 86.214,66.0488 87.714,67.2155 89.5,68C 89.1667,68.3333 88.8333,68.6667 88.5,69C 90.1124,69.7203 91.6124,69.5536 93,68.5C 95.4552,70.4282 95.6219,72.2615 93.5,74C 94.656,75.6149 95.9893,75.6149 97.5,74C 98.0606,72.4345 97.3939,71.1011 95.5,70C 98.146,69.5026 100.813,69.3359 103.5,69.5C 103.343,68.1266 103.51,66.7932 104,65.5C 104.556,67.5951 105.056,67.7618 105.5,66C 104.944,64.9889 104.278,64.1556 103.5,63.5C 105.898,63.7406 107.898,63.0739 109.5,61.5 Z"/></g>
<g><path style="opacity:1" fill="#fadc47" d="M 90.5,63.5 C 91.8342,65.159 93.5008,66.4924 95.5,67.5C 97.5446,66.789 98.8779,65.4557 99.5,63.5C 100.833,63.5 102.167,63.5 103.5,63.5C 104.278,64.1556 104.944,64.9889 105.5,66C 105.056,67.7618 104.556,67.5951 104,65.5C 103.51,66.7932 103.343,68.1266 103.5,69.5C 100.813,69.3359 98.146,69.5026 95.5,70C 97.3939,71.1011 98.0606,72.4345 97.5,74C 95.9893,75.6149 94.656,75.6149 93.5,74C 95.6219,72.2615 95.4552,70.4282 93,68.5C 91.6124,69.5536 90.1124,69.7203 88.5,69C 88.8333,68.6667 89.1667,68.3333 89.5,68C 87.714,67.2155 86.214,66.0488 85,64.5C 83.9264,65.6184 82.7598,66.6184 81.5,67.5C 82.5063,68.3957 82.5063,69.0623 81.5,69.5C 80.2319,67.6957 79.5652,65.6957 79.5,63.5C 82.9385,62.6158 86.6051,62.6158 90.5,63.5 Z"/></g>
<g><path style="opacity:1" fill="#9c6440" d="M -0.5,63.5 C 5.5,63.5 11.5,63.5 17.5,63.5C 16.0813,64.4511 14.4147,64.7845 12.5,64.5C 12.3118,66.1033 12.8118,67.4366 14,68.5C 14.805,66.0989 15.6383,66.2656 16.5,69C 13.1512,70.6297 9.31786,71.7964 5,72.5C 4.10723,71.2888 3.2739,71.2888 2.5,72.5C 3.16667,72.8333 3.83333,73.1667 4.5,73.5C 9.27786,73.0552 13.9445,73.0552 18.5,73.5C 19.1924,72.9747 19.6924,72.3081 20,71.5C 24.4643,72.893 28.9643,74.0597 33.5,75C 31.1667,75.3333 28.8333,75.6667 26.5,76C 25.8742,76.7504 25.3742,77.5838 25,78.5C 23.4843,75.9938 21.3176,75.1605 18.5,76C 18.8333,76.3333 19.1667,76.6667 19.5,77C 16.8987,77.9203 14.2321,78.587 11.5,79C 12.7932,79.49 14.1266,79.6567 15.5,79.5C 15.281,80.675 15.6143,81.675 16.5,82.5C 17.5063,82.0623 17.5063,81.3957 16.5,80.5C 18.3231,79.5091 19.8231,78.1757 21,76.5C 21.3742,77.4162 21.8742,78.2496 22.5,79C 21.7471,80.487 20.9138,80.6537 20,79.5C 19.6258,80.4162 19.1258,81.2496 18.5,82C 19.1258,82.7504 19.6258,83.5838 20,84.5C 20.3076,83.6919 20.8076,83.0253 21.5,82.5C 22.2811,83.7287 22.7811,85.062 23,86.5C 23.414,86.0426 23.914,85.7093 24.5,85.5C 25.1818,86.2427 25.8485,86.9094 26.5,87.5C 26.2786,88.7348 25.6119,89.7348 24.5,90.5C 26.4233,91.3078 28.4233,91.8078 30.5,92C 27.9488,92.0023 25.9488,92.8356 24.5,94.5C 21.8127,94.6641 19.146,94.4974 16.5,94C 17.6226,92.9563 18.9559,92.2896 20.5,92C 17.8333,91.6667 15.1667,91.3333 12.5,91C 13.1667,90.6667 13.8333,90.3333 14.5,90C 13.1667,89.6667 11.8333,89.3333 10.5,89C 11.1667,88.6667 11.8333,88.3333 12.5,88C 9.16667,87.6667 5.83333,87.3333 2.5,87C 3.25827,85.6361 2.75827,84.4695 1,83.5C 0.721579,84.4158 0.221579,85.0825 -0.5,85.5C -0.5,78.1667 -0.5,70.8333 -0.5,63.5 Z"/></g>
<g><path style="opacity:1" fill="#f0ab45" d="M 112.5,61.5 C 113.167,61.5 113.833,61.5 114.5,61.5C 114.609,66.7031 115.609,71.7031 117.5,76.5C 116.559,78.7721 115.226,80.7721 113.5,82.5C 108.965,82.3759 104.799,82.7093 101,83.5C 97.7456,83.162 94.9123,82.162 92.5,80.5C 93.1331,80.1205 93.7997,79.7871 94.5,79.5C 91.6794,78.1582 91.8461,77.4916 95,77.5C 98.1539,77.4916 98.3206,78.1582 95.5,79.5C 98.3378,81.1015 101.338,81.6015 104.5,81C 105.086,78.7202 105.92,76.5535 107,74.5C 107.333,74.8333 107.667,75.1667 108,75.5C 110.611,74.9294 113.111,74.0961 115.5,73C 113.119,72.4048 111.119,71.9048 109.5,71.5C 112.028,70.4826 112.028,69.3159 109.5,68C 111.301,67.6827 111.634,67.016 110.5,66C 111.308,65.6924 111.975,65.1924 112.5,64.5C 111.209,63.4728 111.209,62.4728 112.5,61.5 Z"/></g>
<g><path style="opacity:1" fill="#e19040" d="M 48.5,62.5 C 51.2869,61.5233 54.2869,61.19 57.5,61.5C 60.4092,62.4061 63.0758,63.0728 65.5,63.5C 63.7363,64.9021 61.7363,65.7355 59.5,66C 61.1667,67.3333 62.8333,68.6667 64.5,70C 71.1667,71 71.1667,72 64.5,73C 66.5968,74.6104 68.9302,75.7771 71.5,76.5C 69.9223,77.2978 68.2556,77.7978 66.5,78C 70.3298,78.2757 70.9965,79.4424 68.5,81.5C 66.1432,81.6633 63.8098,81.4966 61.5,81C 62.938,80.7811 64.2713,80.2811 65.5,79.5C 65.3333,79.1667 65.1667,78.8333 65,78.5C 61.5838,79.5543 58.0838,79.7209 54.5,79C 56.8912,77.6914 56.8912,76.6914 54.5,76C 57.4715,75.2057 60.4715,74.539 63.5,74C 60.8333,73.3333 60.8333,72.6667 63.5,72C 62.2341,71.6905 61.0674,71.1905 60,70.5C 59,70.8333 58,71.1667 57,71.5C 56.3828,70.5509 56.5494,69.7175 57.5,69C 56.2396,67.887 55.073,67.7203 54,68.5C 52.5415,66.5681 51.3748,64.5681 50.5,62.5C 49.8333,62.5 49.1667,62.5 48.5,62.5 Z"/></g>
<g><path style="opacity:1" fill="#fde4b1" d="M 219.5,42.5 C 220.167,42.5 220.833,42.5 221.5,42.5C 222.5,42.8333 223.167,43.5 223.5,44.5C 225.168,46.34 226.668,48.34 228,50.5C 228.098,58.5273 230.265,65.8607 234.5,72.5C 235.59,75.9855 235.59,79.3188 234.5,82.5C 234.5,80.5 234.5,78.5 234.5,76.5C 231.001,76.741 230.668,75.9076 233.5,74C 232.056,73.2195 230.723,73.3861 229.5,74.5C 229.833,75.1667 230.167,75.8333 230.5,76.5C 225.26,77.5873 225.26,78.5873 230.5,79.5C 230.33,80.8221 230.663,81.9887 231.5,83C 230.552,83.4828 229.552,83.6495 228.5,83.5C 226.599,86.4552 224.599,90.1218 222.5,94.5C 223.282,96.3293 222.616,97.8293 220.5,99C 222.988,100.685 222.655,102.019 219.5,103C 220.167,103.333 220.833,103.667 221.5,104C 220.748,104.671 220.414,105.504 220.5,106.5C 220.565,106.938 220.399,107.272 220,107.5C 215.892,105.455 215.725,103.289 219.5,101C 217.223,101.324 214.89,100.824 212.5,99.5C 212.622,100.864 212.622,102.197 212.5,103.5C 208.862,102.063 208.695,100.396 212,98.5C 213.416,97.4267 214.75,97.4267 216,98.5C 216.925,97.9535 217.758,97.2868 218.5,96.5C 217.431,96.3601 216.264,96.3601 215,96.5C 214.5,96 214,95.5 213.5,95C 215.105,93.6397 216.605,92.1397 218,90.5C 218.333,90.8333 218.667,91.1667 219,91.5C 219.667,89.5 220.333,87.5 221,85.5C 221.718,86.4506 222.551,86.6172 223.5,86C 222.167,84.6667 222.167,83.3333 223.5,82C 222.526,79.713 221.193,77.713 219.5,76C 220.5,75.6667 221.5,75.3333 222.5,75C 219.351,73.0317 216.184,71.8651 213,71.5C 211.581,72.4601 210.081,73.2935 208.5,74C 208.957,74.414 209.291,74.914 209.5,75.5C 208.48,79.0625 206.98,82.3959 205,85.5C 203.666,84.1221 203.499,82.7887 204.5,81.5C 204.141,79.629 203.141,78.129 201.5,77C 202.516,76.4806 203.182,75.6473 203.5,74.5C 202.359,71.4931 200.193,69.4931 197,68.5C 196.493,69.9961 196.993,71.1627 198.5,72C 195.208,72.9357 192.208,72.4357 189.5,70.5C 191.195,65.4984 193.362,64.4984 196,67.5C 196.5,67.1667 197,66.8333 197.5,66.5C 196.089,64.9825 196.256,63.6492 198,62.5C 199.214,64.0488 200.714,65.2155 202.5,66C 201.978,66.5613 201.645,67.228 201.5,68C 203.461,71.3058 205.461,71.3058 207.5,68C 206.549,67.2825 206.383,66.4491 207,65.5C 208.645,65.6932 210.479,65.8598 212.5,66C 213.641,66.7412 213.641,67.5745 212.5,68.5C 213.628,69.2621 214.795,69.9288 216,70.5C 216.442,68.3215 217.442,67.6548 219,68.5C 219.45,65.9362 218.284,64.4362 215.5,64C 217.524,62.5421 217.691,60.7087 216,58.5C 215.667,58.8333 215.333,59.1667 215,59.5C 213.411,57.0885 213.911,54.9218 216.5,53C 216.043,52.586 215.709,52.086 215.5,51.5C 216.898,49.8697 217.898,48.0363 218.5,46C 216.881,45.7645 215.881,44.9311 215.5,43.5C 217.099,43.7678 218.432,43.4345 219.5,42.5 Z"/></g>
<g><path style="opacity:1" fill="#fbc99b" d="M 212.5,103.5 C 211.938,105.496 212.438,107.496 214,109.5C 214.333,109.167 214.667,108.833 215,108.5C 216.067,109.191 217.234,109.691 218.5,110C 216.833,110.333 215.167,110.667 213.5,111C 215.125,111.853 215.458,112.853 214.5,114C 216.403,115.828 218.236,115.661 220,113.5C 222.096,114.715 221.929,115.549 219.5,116C 223.852,116.419 224.185,117.086 220.5,118C 224.21,119.515 227.544,121.515 230.5,124C 229.027,124.71 228.36,125.876 228.5,127.5C 224.5,127.5 220.5,127.5 216.5,127.5C 215.909,126.849 215.243,126.182 214.5,125.5C 215.46,124.188 215.294,122.854 214,121.5C 213.784,123.384 213.117,125.051 212,126.5C 212.43,124.873 212.596,123.373 212.5,122C 211.624,120.414 210.624,118.914 209.5,117.5C 205.75,116.409 202.084,114.576 198.5,112C 201.195,110.584 201.861,108.584 200.5,106C 202.359,105.399 202.692,104.566 201.5,103.5C 201.918,102.778 202.584,102.278 203.5,102C 202.062,101.781 200.729,101.281 199.5,100.5C 200.025,99.8076 200.692,99.3076 201.5,99C 199.633,98.2888 198.133,98.7888 197,100.5C 194.887,98.7289 195.053,97.2289 197.5,96C 193.728,94.1703 194.061,92.6703 198.5,91.5C 199.427,89.5095 199.594,87.5095 199,85.5C 199.333,85.8333 199.667,86.1667 200,86.5C 201.067,84.3083 202.567,82.6417 204.5,81.5C 203.499,82.7887 203.666,84.1221 205,85.5C 206.98,82.3959 208.48,79.0625 209.5,75.5C 209.291,74.914 208.957,74.414 208.5,74C 210.081,73.2935 211.581,72.4601 213,71.5C 216.184,71.8651 219.351,73.0317 222.5,75C 221.5,75.3333 220.5,75.6667 219.5,76C 221.193,77.713 222.526,79.713 223.5,82C 222.167,83.3333 222.167,84.6667 223.5,86C 222.551,86.6172 221.718,86.4506 221,85.5C 220.333,87.5 219.667,89.5 219,91.5C 218.667,91.1667 218.333,90.8333 218,90.5C 216.605,92.1397 215.105,93.6397 213.5,95C 214,95.5 214.5,96 215,96.5C 216.264,96.3601 217.431,96.3601 218.5,96.5C 217.758,97.2868 216.925,97.9535 216,98.5C 214.75,97.4267 213.416,97.4267 212,98.5C 208.695,100.396 208.862,102.063 212.5,103.5 Z"/></g>
<g><path style="opacity:1" fill="#826954" d="M 167.5,66.5 C 170.447,69.1214 173.113,72.1214 175.5,75.5C 174.975,76.1924 174.308,76.6924 173.5,77C 174.337,78.0113 174.67,79.1779 174.5,80.5C 168.881,80.2404 163.381,79.2404 158,77.5C 155.837,77.4947 154.337,78.4947 153.5,80.5C 155.885,86.8 157.718,86.8 159,80.5C 161.941,81.9247 164.941,83.2581 168,84.5C 168.333,84.1667 168.667,83.8333 169,83.5C 169.691,86.266 171.191,86.9327 173.5,85.5C 174.522,85.8555 175.189,86.5222 175.5,87.5C 174.167,87.5 172.833,87.5 171.5,87.5C 171.5,88.8333 171.5,90.1667 171.5,91.5C 169.876,91.3601 168.71,92.0267 168,93.5C 167.667,92.8333 167.333,92.1667 167,91.5C 165.883,91.6651 164.716,91.9984 163.5,92.5C 160.833,91.1667 158.167,89.8333 155.5,88.5C 154.269,89.6507 154.269,90.8173 155.5,92C 153.649,92.8372 151.816,93.6705 150,94.5C 150.046,92.6874 149.88,91.0207 149.5,89.5C 147.478,90.9451 145.645,92.6118 144,94.5C 142.16,93.1669 141.66,93.3335 142.5,95C 138.51,98.6013 137.843,98.268 140.5,94C 137.64,92.3679 135.307,90.2012 133.5,87.5C 137.335,85.8368 137.001,85.3368 132.5,86C 131.944,86.3826 131.611,86.8826 131.5,87.5C 130.475,87.1034 130.308,86.4368 131,85.5C 133.595,84.7691 135.261,83.1025 136,80.5C 138.933,81.4657 141.599,81.4657 144,80.5C 144.167,80.1667 144.333,79.8333 144.5,79.5C 143.624,78.7492 142.624,78.2492 141.5,78C 143.878,77.4888 146.212,76.8221 148.5,76C 147.584,75.7216 146.918,75.2216 146.5,74.5C 151.083,73.1749 156.083,72.0082 161.5,71C 158.234,70.6658 155.234,70.4992 152.5,70.5C 156.347,69.4989 159.847,67.8322 163,65.5C 164.356,66.3802 165.856,66.7135 167.5,66.5 Z"/></g>
<g><path style="opacity:1" fill="#915f40" d="M 255.5,63.5 C 255.5,75.5 255.5,87.5 255.5,99.5C 251.347,99.2639 247.013,99.2639 242.5,99.5C 241.4,98.3951 240.733,97.0618 240.5,95.5C 243.217,92.3631 244.051,88.6964 243,84.5C 240.936,83.4086 238.769,83.2419 236.5,84C 235.62,85.3561 235.286,86.8561 235.5,88.5C 234.624,88.6309 233.957,88.2975 233.5,87.5C 234.309,85.9291 234.643,84.2624 234.5,82.5C 235.59,79.3188 235.59,75.9855 234.5,72.5C 235.222,72.9175 235.722,73.5842 236,74.5C 235.733,70.559 235.566,66.559 235.5,62.5C 239.664,62.6305 243.831,62.9639 248,63.5C 249,62.8333 250,62.1667 251,61.5C 252.3,62.7073 253.8,63.3739 255.5,63.5 Z"/></g>
<g><path style="opacity:1" fill="#92755d" d="M 153.5,39.5 C 153.5,40.1667 153.833,40.5 154.5,40.5C 155.97,42.3901 156.97,44.5568 157.5,47C 156.062,49.3663 156.562,49.8663 159,48.5C 159.374,49.4162 159.874,50.2496 160.5,51C 159.692,51.3076 159.025,51.8076 158.5,52.5C 159.052,54.0026 159.052,55.6693 158.5,57.5C 156.801,57.3398 155.134,57.5065 153.5,58C 151.612,59.6995 149.612,60.1995 147.5,59.5C 145.096,60.0079 144.429,61.1745 145.5,63C 142.631,65.225 141.131,64.3917 141,60.5C 139.582,63.1441 139.082,65.8108 139.5,68.5C 140.376,69.2508 141.376,69.7508 142.5,70C 131.851,71.4398 131.517,73.6065 141.5,76.5C 143.177,75.8131 144.844,75.1465 146.5,74.5C 146.918,75.2216 147.584,75.7216 148.5,76C 146.212,76.8221 143.878,77.4888 141.5,78C 142.624,78.2492 143.624,78.7492 144.5,79.5C 144.333,79.8333 144.167,80.1667 144,80.5C 141.599,81.4657 138.933,81.4657 136,80.5C 135.261,83.1025 133.595,84.7691 131,85.5C 130.308,86.4368 130.475,87.1034 131.5,87.5C 131.509,89.3084 131.009,90.9751 130,92.5C 128.951,91.4829 127.784,91.3162 126.5,92C 127.167,92.3333 127.833,92.6667 128.5,93C 126.804,94.2051 125.137,94.7051 123.5,94.5C 122.164,92.4677 120.497,90.6343 118.5,89C 119.623,87.9563 120.956,87.2896 122.5,87C 120.884,86.3848 119.551,85.3848 118.5,84C 120.959,83.276 121.959,81.9427 121.5,80C 122.362,77.2656 123.195,77.0989 124,79.5C 124.684,78.2161 124.517,77.0495 123.5,76C 123.833,75.8333 124.167,75.6667 124.5,75.5C 125.251,76.376 125.751,77.376 126,78.5C 126.98,77.0186 128.147,75.6853 129.5,74.5C 132.052,75.4402 132.886,74.4402 132,71.5C 130.333,72.1667 128.667,72.8333 127,73.5C 125.221,71.9826 125.721,71.1492 128.5,71C 126.378,69.2615 126.545,67.4282 129,65.5C 130,66.5 131,67.5 132,68.5C 132.5,68 133,67.5 133.5,67C 132.891,64.9419 131.891,64.1086 130.5,64.5C 131.976,63.1198 132.976,61.4531 133.5,59.5C 132.975,58.8076 132.308,58.3076 131.5,58C 132.667,57.5 133.5,56.6667 134,55.5C 134.718,56.4506 135.551,56.6172 136.5,56C 133.674,51.1461 134.84,47.6461 140,45.5C 140.333,45.8333 140.667,46.1667 141,46.5C 141.684,45.2161 141.517,44.0495 140.5,43C 141.381,42.2917 142.047,41.4584 142.5,40.5C 146.099,39.6561 149.766,39.3227 153.5,39.5 Z"/></g>
<g><path style="opacity:1" fill="#cea17c" d="M 149.5,40.5 C 151.17,40.7512 152.67,41.4178 154,42.5C 154.117,45.9423 155.283,48.9423 157.5,51.5C 156.52,52.9814 155.353,54.3147 154,55.5C 151.203,52.084 148.036,48.9174 144.5,46C 145.833,45.3333 147.167,44.6667 148.5,44C 148.167,43.6667 147.833,43.3333 147.5,43C 148.381,42.2917 149.047,41.4584 149.5,40.5 Z"/></g>
<g><path style="opacity:1" fill="#cd864b" d="M 50.5,62.5 C 51.3748,64.5681 52.5415,66.5681 54,68.5C 55.073,67.7203 56.2396,67.887 57.5,69C 56.5494,69.7175 56.3828,70.5509 57,71.5C 58,71.1667 59,70.8333 60,70.5C 61.0674,71.1905 62.2341,71.6905 63.5,72C 60.8333,72.6667 60.8333,73.3333 63.5,74C 60.4715,74.539 57.4715,75.2057 54.5,76C 56.8912,76.6914 56.8912,77.6914 54.5,79C 58.0838,79.7209 61.5838,79.5543 65,78.5C 65.1667,78.8333 65.3333,79.1667 65.5,79.5C 64.2713,80.2811 62.938,80.7811 61.5,81C 63.8098,81.4966 66.1432,81.6633 68.5,81.5C 73.9995,81.2691 79.6662,81.2691 85.5,81.5C 87.6581,83.22 90.3248,84.0533 93.5,84C 93,84.5 92.5,85 92,85.5C 90.6015,84.9491 89.2682,84.6158 88,84.5C 87.6411,87.5443 86.9745,87.8776 86,85.5C 85.6667,86.1667 85.3333,86.8333 85,87.5C 83.1667,87.3333 81.3333,87.1667 79.5,87C 81.8912,88.3086 81.8912,89.3086 79.5,90C 81.7885,90.8221 84.1218,91.4888 86.5,92C 86.0426,92.414 85.7093,92.914 85.5,93.5C 83.0829,94.0722 80.9162,95.0722 79,96.5C 76.0844,94.9865 73.4177,95.3199 71,97.5C 70.6667,96.8333 70.3333,96.1667 70,95.5C 68.9025,96.9675 67.4025,97.8008 65.5,98C 67.3817,98.1981 69.0484,98.6981 70.5,99.5C 60.0623,99.9512 49.729,99.4512 39.5,98C 38.1118,97.1107 38.2785,96.6107 40,96.5C 46.255,96.3324 52.255,96.3324 58,96.5C 58.7504,95.8742 59.5838,95.3742 60.5,95C 53.4155,93.1779 46.2489,93.0113 39,94.5C 37.5962,94.4907 36.4296,93.9907 35.5,93C 39.5628,92.4844 43.5628,91.6511 47.5,90.5C 49.6934,90.3262 51.5267,90.9929 53,92.5C 56.8165,91.8615 60.9832,91.3615 65.5,91C 63.1144,90.7165 62.4477,89.7165 63.5,88C 53.3979,88.1289 47.3979,87.6289 45.5,86.5C 46.1667,85.1667 46.8333,83.8333 47.5,82.5C 46.5,82.5 45.5,82.5 44.5,82.5C 43.6016,81.8423 42.6016,81.1757 41.5,80.5C 44.4252,76.882 43.4252,75.0487 38.5,75C 44.9026,73.5766 44.5692,72.7433 37.5,72.5C 37.3068,68.551 36.8068,68.551 36,72.5C 33.8215,71.8839 31.9882,70.7172 30.5,69C 34.5,68.3333 34.5,67.6667 30.5,67C 31.3617,64.2656 32.195,64.0989 33,66.5C 34.9912,65.0082 37.1578,64.0082 39.5,63.5C 43.3714,63.815 47.0381,63.4816 50.5,62.5 Z"/></g>
<g><path style="opacity:1" fill="#4a3c1b" d="M 240.5,95.5 C 238.6,93.3805 236.934,91.0472 235.5,88.5C 235.286,86.8561 235.62,85.3561 236.5,84C 238.769,83.2419 240.936,83.4086 243,84.5C 244.051,88.6964 243.217,92.3631 240.5,95.5 Z"/></g>
<g><path style="opacity:1" fill="#a2663c" d="M 44.5,82.5 C 45.5,82.5 46.5,82.5 47.5,82.5C 46.8333,83.8333 46.1667,85.1667 45.5,86.5C 47.3979,87.6289 53.3979,88.1289 63.5,88C 62.4477,89.7165 63.1144,90.7165 65.5,91C 60.9832,91.3615 56.8165,91.8615 53,92.5C 51.5267,90.9929 49.6934,90.3262 47.5,90.5C 43.5628,91.6511 39.5628,92.4844 35.5,93C 36.4296,93.9907 37.5962,94.4907 39,94.5C 46.2489,93.0113 53.4155,93.1779 60.5,95C 59.5838,95.3742 58.7504,95.8742 58,96.5C 52.255,96.3324 46.255,96.3324 40,96.5C 38.2785,96.6107 38.1118,97.1107 39.5,98C 49.729,99.4512 60.0623,99.9512 70.5,99.5C 71.4916,99.3284 72.1583,99.6618 72.5,100.5C 72.4142,101.496 72.7476,102.329 73.5,103C 82.1603,103.5 90.8269,103.666 99.5,103.5C 100.045,105.399 99.3784,107.066 97.5,108.5C 87.6522,108.173 77.9856,108.506 68.5,109.5C 58.4859,109.802 48.1526,109.802 37.5,109.5C 37.6107,108.883 37.944,108.383 38.5,108C 48.1548,107.068 48.4881,106.068 39.5,105C 40.1667,104.333 40.8333,103.667 41.5,103C 39.7725,103.526 38.1059,103.359 36.5,102.5C 36.8039,101.85 37.1373,101.183 37.5,100.5C 31.3237,98.4723 24.9904,97.139 18.5,96.5C 20.7563,95.9485 23.423,95.4485 26.5,95C 25.9056,94.5357 25.2389,94.369 24.5,94.5C 25.9488,92.8356 27.9488,92.0023 30.5,92C 28.4233,91.8078 26.4233,91.3078 24.5,90.5C 25.6119,89.7348 26.2786,88.7348 26.5,87.5C 26.5774,86.2502 27.244,85.4169 28.5,85C 27.6919,84.6924 27.0253,84.1924 26.5,83.5C 32.9203,82.8461 38.9203,82.5128 44.5,82.5 Z"/></g>
<g><path style="opacity:1" fill="#90735b" d="M 187.5,80.5 C 190.687,79.1944 194.02,79.1944 197.5,80.5C 196.872,82.2581 195.872,83.7581 194.5,85C 190.886,85.9449 187.219,86.6116 183.5,87C 182.789,88.2547 181.956,89.4214 181,90.5C 180.581,89.3279 179.915,88.3279 179,87.5C 178.383,88.4491 178.549,89.2825 179.5,90C 178.552,90.4828 177.552,90.6495 176.5,90.5C 176.586,92.677 177.253,94.677 178.5,96.5C 178.376,97.1067 178.043,97.44 177.5,97.5C 175.914,98.4132 174.414,98.4132 173,97.5C 171.629,99.0414 170.129,100.375 168.5,101.5C 168.062,101.565 167.728,101.399 167.5,101C 171.349,97.9496 170.682,96.1163 165.5,95.5C 165.662,97.5273 165.495,99.5273 165,101.5C 164.581,97.1482 163.914,96.8149 163,100.5C 161.484,97.9485 160.651,98.2819 160.5,101.5C 157.95,101.561 156.45,102.894 156,105.5C 154.294,103.295 152.794,100.962 151.5,98.5C 151.019,101.265 150.352,103.932 149.5,106.5C 148.355,105.224 148.355,103.891 149.5,102.5C 149.135,101.098 148.301,100.098 147,99.5C 145.584,100.573 144.25,100.573 143,99.5C 142.667,100.167 142.333,100.833 142,101.5C 139.731,99.7313 137.398,99.0647 135,99.5C 134.56,101.076 133.727,102.41 132.5,103.5C 133.09,104.799 134.09,105.632 135.5,106C 132.585,107.31 129.751,108.81 127,110.5C 126.5,110.333 126,110.167 125.5,110C 126.252,109.329 126.586,108.496 126.5,107.5C 126.423,106.25 125.756,105.417 124.5,105C 127.276,103.221 126.943,102.221 123.5,102C 124.517,100.951 124.684,99.7839 124,98.5C 123.016,100.795 122.183,100.461 121.5,97.5C 122.5,96.6667 123.5,95.8333 124.5,95C 124.272,94.6012 123.938,94.4346 123.5,94.5C 125.137,94.7051 126.804,94.2051 128.5,93C 127.833,92.6667 127.167,92.3333 126.5,92C 127.784,91.3162 128.951,91.4829 130,92.5C 131.009,90.9751 131.509,89.3084 131.5,87.5C 131.611,86.8826 131.944,86.3826 132.5,86C 137.001,85.3368 137.335,85.8368 133.5,87.5C 135.307,90.2012 137.64,92.3679 140.5,94C 137.843,98.268 138.51,98.6013 142.5,95C 141.66,93.3335 142.16,93.1669 144,94.5C 145.645,92.6118 147.478,90.9451 149.5,89.5C 149.88,91.0207 150.046,92.6874 150,94.5C 151.816,93.6705 153.649,92.8372 155.5,92C 154.269,90.8173 154.269,89.6507 155.5,88.5C 158.167,89.8333 160.833,91.1667 163.5,92.5C 164.716,91.9984 165.883,91.6651 167,91.5C 167.333,92.1667 167.667,92.8333 168,93.5C 168.71,92.0267 169.876,91.3601 171.5,91.5C 171.5,90.1667 171.5,88.8333 171.5,87.5C 172.833,87.5 174.167,87.5 175.5,87.5C 177.414,86.8153 179.414,86.3153 181.5,86C 182.035,83.8913 183.035,83.3913 184.5,84.5C 187.442,83.1813 190.442,82.0146 193.5,81C 191.527,80.5045 189.527,80.3379 187.5,80.5 Z"/></g>
<g><path style="opacity:1" fill="#d58d40" d="M 92.5,80.5 C 94.9123,82.162 97.7456,83.162 101,83.5C 104.799,82.7093 108.965,82.3759 113.5,82.5C 111.849,83.9701 110.015,85.3034 108,86.5C 108.11,90.9317 106.61,94.5984 103.5,97.5C 101.856,97.7135 100.356,97.3802 99,96.5C 94.2512,97.3052 89.4179,97.8052 84.5,98C 86.8439,99.2915 89.1772,99.7915 91.5,99.5C 90.469,100.249 89.3024,100.915 88,101.5C 83.3016,100.847 78.1349,100.514 72.5,100.5C 72.1583,99.6618 71.4916,99.3284 70.5,99.5C 69.0484,98.6981 67.3817,98.1981 65.5,98C 67.4025,97.8008 68.9025,96.9675 70,95.5C 70.3333,96.1667 70.6667,96.8333 71,97.5C 73.4177,95.3199 76.0844,94.9865 79,96.5C 80.9162,95.0722 83.0829,94.0722 85.5,93.5C 85.7093,92.914 86.0426,92.414 86.5,92C 84.1218,91.4888 81.7885,90.8221 79.5,90C 81.8912,89.3086 81.8912,88.3086 79.5,87C 81.3333,87.1667 83.1667,87.3333 85,87.5C 85.3333,86.8333 85.6667,86.1667 86,85.5C 86.9745,87.8776 87.6411,87.5443 88,84.5C 89.2682,84.6158 90.6015,84.9491 92,85.5C 92.5,85 93,84.5 93.5,84C 90.3248,84.0533 87.6581,83.22 85.5,81.5C 87.8868,80.6871 90.2201,80.3538 92.5,80.5 Z"/></g>
<g><path style="opacity:1" fill="#412915" d="M -0.5,97.5 C 6.01394,97.0446 12.3473,97.5446 18.5,99C 16.1518,101.293 13.9852,101.46 12,99.5C 11,100.167 10,100.833 9,101.5C 5.88756,100.427 2.7209,100.427 -0.5,101.5C -0.5,100.167 -0.5,98.8333 -0.5,97.5 Z"/></g>
<g><path style="opacity:1" fill="#6f472d" d="M 24.5,94.5 C 25.2389,94.369 25.9056,94.5357 26.5,95C 23.423,95.4485 20.7563,95.9485 18.5,96.5C 24.9904,97.139 31.3237,98.4723 37.5,100.5C 37.1373,101.183 36.8039,101.85 36.5,102.5C 30.7279,101.989 24.8946,102.323 19,103.5C 17.6739,103.245 16.6739,102.578 16,101.5C 10.6959,103.308 5.1959,103.975 -0.5,103.5C -0.5,102.833 -0.5,102.167 -0.5,101.5C 2.7209,100.427 5.88756,100.427 9,101.5C 10,100.833 11,100.167 12,99.5C 13.9852,101.46 16.1518,101.293 18.5,99C 12.3473,97.5446 6.01394,97.0446 -0.5,97.5C -0.5,93.5 -0.5,89.5 -0.5,85.5C 0.221579,85.0825 0.721579,84.4158 1,83.5C 2.75827,84.4695 3.25827,85.6361 2.5,87C 5.83333,87.3333 9.16667,87.6667 12.5,88C 11.8333,88.3333 11.1667,88.6667 10.5,89C 11.8333,89.3333 13.1667,89.6667 14.5,90C 13.8333,90.3333 13.1667,90.6667 12.5,91C 15.1667,91.3333 17.8333,91.6667 20.5,92C 18.9559,92.2896 17.6226,92.9563 16.5,94C 19.146,94.4974 21.8127,94.6641 24.5,94.5 Z"/></g>
<g><path style="opacity:1" fill="#ecad48" d="M 103.5,97.5 C 103.068,98.7095 102.401,99.7095 101.5,100.5C 98.0248,101.801 94.6915,101.467 91.5,99.5C 89.1772,99.7915 86.8439,99.2915 84.5,98C 89.4179,97.8052 94.2512,97.3052 99,96.5C 100.356,97.3802 101.856,97.7135 103.5,97.5 Z"/></g>
<g><path style="opacity:1" fill="#7c6653" d="M 142.5,40.5 C 142.047,41.4584 141.381,42.2917 140.5,43C 141.517,44.0495 141.684,45.2161 141,46.5C 140.667,46.1667 140.333,45.8333 140,45.5C 134.84,47.6461 133.674,51.1461 136.5,56C 135.551,56.6172 134.718,56.4506 134,55.5C 133.5,56.6667 132.667,57.5 131.5,58C 132.308,58.3076 132.975,58.8076 133.5,59.5C 132.976,61.4531 131.976,63.1198 130.5,64.5C 131.891,64.1086 132.891,64.9419 133.5,67C 133,67.5 132.5,68 132,68.5C 131,67.5 130,66.5 129,65.5C 126.545,67.4282 126.378,69.2615 128.5,71C 125.721,71.1492 125.221,71.9826 127,73.5C 128.667,72.8333 130.333,72.1667 132,71.5C 132.886,74.4402 132.052,75.4402 129.5,74.5C 128.147,75.6853 126.98,77.0186 126,78.5C 125.751,77.376 125.251,76.376 124.5,75.5C 124.167,75.6667 123.833,75.8333 123.5,76C 124.517,77.0495 124.684,78.2161 124,79.5C 123.195,77.0989 122.362,77.2656 121.5,80C 121.959,81.9427 120.959,83.276 118.5,84C 119.551,85.3848 120.884,86.3848 122.5,87C 120.956,87.2896 119.623,87.9563 118.5,89C 120.497,90.6343 122.164,92.4677 123.5,94.5C 123.938,94.4346 124.272,94.6012 124.5,95C 123.5,95.8333 122.5,96.6667 121.5,97.5C 122.183,100.461 123.016,100.795 124,98.5C 124.684,99.7839 124.517,100.951 123.5,102C 126.943,102.221 127.276,103.221 124.5,105C 125.756,105.417 126.423,106.25 126.5,107.5C 121.903,109.476 117.403,109.476 113,107.5C 112.707,109.925 111.541,111.758 109.5,113C 107.965,112.339 106.298,112.006 104.5,112C 105.167,112.333 105.833,112.667 106.5,113C 104.028,114.601 103.028,116.601 103.5,119C 102.5,119.333 101.5,119.667 100.5,120C 101.672,120.419 102.672,121.085 103.5,122C 99.9406,122.679 98.9406,124.512 100.5,127.5C 98.8333,127.5 97.1667,127.5 95.5,127.5C 95.5,126.5 95.5,125.5 95.5,124.5C 95.352,119.678 96.0187,115.012 97.5,110.5C 97.5,109.833 97.5,109.167 97.5,108.5C 99.3784,107.066 100.045,105.399 99.5,103.5C 100.906,103.027 101.573,102.027 101.5,100.5C 102.401,99.7095 103.068,98.7095 103.5,97.5C 106.61,94.5984 108.11,90.9317 108,86.5C 110.015,85.3034 111.849,83.9701 113.5,82.5C 115.226,80.7721 116.559,78.7721 117.5,76.5C 119.233,75.9924 119.566,75.159 118.5,74C 121.788,70.4017 122.122,66.5684 119.5,62.5C 121.125,55.5823 123.792,49.249 127.5,43.5C 130.486,44.3551 133.486,44.8551 136.5,45C 135.663,43.9887 135.33,42.8221 135.5,41.5C 137.903,41.552 140.236,41.2186 142.5,40.5 Z"/></g>
<g><path style="opacity:1" fill="#3e2917" d="M 255.5,99.5 C 255.5,100.167 255.5,100.833 255.5,101.5C 251.64,101.808 247.974,102.475 244.5,103.5C 244.167,103.5 243.833,103.5 243.5,103.5C 243.167,102.167 242.833,100.833 242.5,99.5C 247.013,99.2639 251.347,99.2639 255.5,99.5 Z"/></g>
<g><path style="opacity:1" fill="#fdebb9" d="M 234.5,82.5 C 234.643,84.2624 234.309,85.9291 233.5,87.5C 233.957,88.2975 234.624,88.6309 235.5,88.5C 236.934,91.0472 238.6,93.3805 240.5,95.5C 240.733,97.0618 241.4,98.3951 242.5,99.5C 242.833,100.833 243.167,102.167 243.5,103.5C 243.383,105.484 244.05,107.15 245.5,108.5C 244.675,109.386 243.675,109.719 242.5,109.5C 241.226,110.189 241.226,111.023 242.5,112C 241.833,112.667 241.167,112.667 240.5,112C 239.773,110.601 239.273,109.101 239,107.5C 238.83,109.715 238.163,111.715 237,113.5C 236.51,112.207 236.343,110.873 236.5,109.5C 233.668,110.581 231.002,110.415 228.5,109C 227.874,108.25 227.374,107.416 227,106.5C 225.846,108.957 224.512,108.957 223,106.5C 222.667,107.167 222.333,107.833 222,108.5C 221.722,107.584 221.222,106.918 220.5,106.5C 220.414,105.504 220.748,104.671 221.5,104C 220.833,103.667 220.167,103.333 219.5,103C 222.655,102.019 222.988,100.685 220.5,99C 222.616,97.8293 223.282,96.3293 222.5,94.5C 224.599,90.1218 226.599,86.4552 228.5,83.5C 229.552,83.6495 230.552,83.4828 231.5,83C 230.663,81.9887 230.33,80.8221 230.5,79.5C 225.26,78.5873 225.26,77.5873 230.5,76.5C 230.167,75.8333 229.833,75.1667 229.5,74.5C 230.723,73.3861 232.056,73.2195 233.5,74C 230.668,75.9076 231.001,76.741 234.5,76.5C 234.5,78.5 234.5,80.5 234.5,82.5 Z"/></g>
<g><path style="opacity:1" fill="#9d6136" d="M 91.5,99.5 C 94.6915,101.467 98.0248,101.801 101.5,100.5C 101.573,102.027 100.906,103.027 99.5,103.5C 90.8269,103.666 82.1603,103.5 73.5,103C 72.7476,102.329 72.4142,101.496 72.5,100.5C 78.1349,100.514 83.3016,100.847 88,101.5C 89.3024,100.915 90.469,100.249 91.5,99.5 Z"/></g>
<g><path style="opacity:1" fill="#b38d6d" d="M 177.5,97.5 C 176.886,99.7225 175.552,101.389 173.5,102.5C 174.716,103.096 176.049,103.263 177.5,103C 180.102,104.554 181.269,106.72 181,109.5C 178.324,110.572 175.991,109.905 174,107.5C 172.066,109.419 172.233,110.919 174.5,112C 173.272,112.779 172.272,113.779 171.5,115C 174.024,117.556 177.024,119.39 180.5,120.5C 181.5,120 182.5,119.5 183.5,119C 181.5,117.667 179.833,116 178.5,114C 179.333,113.167 180.167,112.333 181,111.5C 182.097,113.053 183.43,114.386 185,115.5C 185.165,119.548 186.998,122.215 190.5,123.5C 191.5,123.5 192.5,123.5 193.5,123.5C 193.5,124.5 193.5,125.5 193.5,126.5C 195.099,126.232 196.432,126.566 197.5,127.5C 188.167,127.5 178.833,127.5 169.5,127.5C 169.311,123.36 168.644,119.36 167.5,115.5C 168.5,115.5 169.5,115.5 170.5,115.5C 170.674,113.139 171.007,110.806 171.5,108.5C 167.694,107.187 168.027,106.02 172.5,105C 172.167,104.667 171.833,104.333 171.5,104C 169.575,104.135 167.575,104.302 165.5,104.5C 166.306,103.272 167.306,102.272 168.5,101.5C 170.129,100.375 171.629,99.0414 173,97.5C 174.414,98.4132 175.914,98.4132 177.5,97.5 Z"/></g>
<g><path style="opacity:1" fill="#875435" d="M 36.5,102.5 C 38.1059,103.359 39.7725,103.526 41.5,103C 40.8333,103.667 40.1667,104.333 39.5,105C 48.4881,106.068 48.1548,107.068 38.5,108C 37.944,108.383 37.6107,108.883 37.5,109.5C 33.5413,109.071 30.0413,110.071 27,112.5C 25.6012,112.499 24.1012,112.165 22.5,111.5C 14.6599,112.509 6.99322,113.176 -0.5,113.5C -0.5,110.167 -0.5,106.833 -0.5,103.5C 5.1959,103.975 10.6959,103.308 16,101.5C 16.6739,102.578 17.6739,103.245 19,103.5C 24.8946,102.323 30.7279,101.989 36.5,102.5 Z"/></g>
<g><path style="opacity:1" fill="#c89b75" d="M 188.5,66.5 C 186.843,69.0088 187.176,71.1755 189.5,73C 188.167,73.3333 186.833,73.6667 185.5,74C 190.229,74.2727 194.896,74.9393 199.5,76C 199.324,77.6597 199.991,79.3264 201.5,81C 196.716,84.7683 191.716,88.2683 186.5,91.5C 185.866,93.5668 184.866,95.4002 183.5,97C 185.185,98.9456 187.185,100.446 189.5,101.5C 191.687,103.18 194.021,104.68 196.5,106C 195.833,106.333 195.167,106.667 194.5,107C 197.179,110.063 196.846,111.896 193.5,112.5C 194.735,115.044 195.901,115.044 197,112.5C 197.49,113.793 197.657,115.127 197.5,116.5C 201.593,117.524 205.593,118.857 209.5,120.5C 204.827,121.421 199.994,121.754 195,121.5C 194.618,117.339 192.451,114.672 188.5,113.5C 187.396,114.631 187.729,115.465 189.5,116C 188.692,116.308 188.025,116.808 187.5,117.5C 188.129,119.741 189.129,121.741 190.5,123.5C 186.998,122.215 185.165,119.548 185,115.5C 183.43,114.386 182.097,113.053 181,111.5C 180.167,112.333 179.333,113.167 178.5,114C 179.833,116 181.5,117.667 183.5,119C 182.5,119.5 181.5,120 180.5,120.5C 177.024,119.39 174.024,117.556 171.5,115C 172.272,113.779 173.272,112.779 174.5,112C 172.233,110.919 172.066,109.419 174,107.5C 175.991,109.905 178.324,110.572 181,109.5C 181.269,106.72 180.102,104.554 177.5,103C 176.049,103.263 174.716,103.096 173.5,102.5C 175.552,101.389 176.886,99.7225 177.5,97.5C 178.043,97.44 178.376,97.1067 178.5,96.5C 177.253,94.677 176.586,92.677 176.5,90.5C 177.552,90.6495 178.552,90.4828 179.5,90C 178.549,89.2825 178.383,88.4491 179,87.5C 179.915,88.3279 180.581,89.3279 181,90.5C 181.956,89.4214 182.789,88.2547 183.5,87C 187.219,86.6116 190.886,85.9449 194.5,85C 195.872,83.7581 196.872,82.2581 197.5,80.5C 194.02,79.1944 190.687,79.1944 187.5,80.5C 186.448,80.6495 185.448,80.4828 184.5,80C 184.833,79.6667 185.167,79.3333 185.5,79C 184.076,76.8995 182.742,74.7328 181.5,72.5C 182.77,71.7124 183.77,70.7124 184.5,69.5C 185.637,68.2112 186.97,67.2112 188.5,66.5 Z"/></g>
<g><path style="opacity:1" fill="#985e35" d="M 255.5,101.5 C 255.5,104.167 255.5,106.833 255.5,109.5C 252.833,109.5 250.167,109.5 247.5,109.5C 246.5,107.5 245.5,105.5 244.5,103.5C 247.974,102.475 251.64,101.808 255.5,101.5 Z"/></g>
<g><path style="opacity:1" fill="#613c23" d="M 68.5,109.5 C 69.7562,109.461 70.7562,109.961 71.5,111C 62.6343,112.523 53.9676,113.689 45.5,114.5C 42.2977,115.7 39.1311,115.7 36,114.5C 35.3086,116.891 34.3086,116.891 33,114.5C 27.71,115.792 22.3767,115.792 17,114.5C 11.0835,115.924 5.25021,116.258 -0.5,115.5C -0.5,114.833 -0.5,114.167 -0.5,113.5C 6.99322,113.176 14.6599,112.509 22.5,111.5C 24.1012,112.165 25.6012,112.499 27,112.5C 30.0413,110.071 33.5413,109.071 37.5,109.5C 48.1526,109.802 58.4859,109.802 68.5,109.5 Z"/></g>
<g><path style="opacity:1" fill="#af8c6c" d="M 165.5,104.5 C 166.275,106.388 166.275,108.388 165.5,110.5C 163.051,109.943 160.718,109.943 158.5,110.5C 159.025,111.192 159.692,111.692 160.5,112C 158.043,113.512 158.043,114.846 160.5,116C 157.029,120.92 152.363,123.587 146.5,124C 147.5,123 148.5,122 149.5,121C 147.101,121.287 144.768,122.12 142.5,123.5C 141.749,122.624 141.249,121.624 141,120.5C 139.604,122.527 137.938,122.86 136,121.5C 134.663,123.004 132.996,124.004 131,124.5C 127.74,123.868 124.906,124.868 122.5,127.5C 116.5,127.5 110.5,127.5 104.5,127.5C 105.398,126.842 106.398,126.176 107.5,125.5C 106.975,124.808 106.308,124.308 105.5,124C 107.582,120.989 109.582,117.989 111.5,115C 112.825,115.148 113.992,114.982 115,114.5C 115.667,115.167 116.333,115.833 117,116.5C 119.381,115.565 121.881,115.232 124.5,115.5C 124.35,112.074 125.516,111.741 128,114.5C 128.333,114.167 128.667,113.833 129,113.5C 130.012,116.426 131.845,117.26 134.5,116C 133.304,116.654 133.304,117.154 134.5,117.5C 135.665,116.509 136.832,115.509 138,114.5C 138.772,114.645 139.439,114.978 140,115.5C 140.519,114.484 141.353,113.818 142.5,113.5C 143.367,114.908 145.033,116.241 147.5,117.5C 149.904,116.992 150.571,115.825 149.5,114C 152.327,113.299 154.994,112.299 157.5,111C 156.253,109.506 156.253,108.006 157.5,106.5C 160.071,104.495 162.738,103.829 165.5,104.5 Z"/></g>
<g><path style="opacity:1" fill="#8a522d" d="M 68.5,109.5 C 77.9856,108.506 87.6522,108.173 97.5,108.5C 97.5,109.167 97.5,109.833 97.5,110.5C 95.8561,110.714 94.3561,110.38 93,109.5C 86.8767,110.959 80.71,111.459 74.5,111C 76.5221,113.018 79.0221,113.852 82,113.5C 86.4887,112.96 90.9887,112.626 95.5,112.5C 95.5,113.5 95.5,114.5 95.5,115.5C 89.5746,115.808 83.7412,115.475 78,114.5C 76.6667,115.167 75.3333,115.833 74,116.5C 69.3907,116.692 64.7241,116.358 60,115.5C 59.6667,116.167 59.3333,116.833 59,117.5C 54.7165,115.837 50.3832,115.504 46,116.5C 45.5357,115.906 45.369,115.239 45.5,114.5C 53.9676,113.689 62.6343,112.523 71.5,111C 70.7562,109.961 69.7562,109.461 68.5,109.5 Z"/></g>
<g><path style="opacity:1" fill="#9a7b62" d="M 168.5,101.5 C 167.306,102.272 166.306,103.272 165.5,104.5C 162.738,103.829 160.071,104.495 157.5,106.5C 156.253,108.006 156.253,109.506 157.5,111C 154.994,112.299 152.327,113.299 149.5,114C 150.571,115.825 149.904,116.992 147.5,117.5C 145.033,116.241 143.367,114.908 142.5,113.5C 141.353,113.818 140.519,114.484 140,115.5C 139.439,114.978 138.772,114.645 138,114.5C 136.832,115.509 135.665,116.509 134.5,117.5C 133.304,117.154 133.304,116.654 134.5,116C 131.845,117.26 130.012,116.426 129,113.5C 128.667,113.833 128.333,114.167 128,114.5C 125.516,111.741 124.35,112.074 124.5,115.5C 121.881,115.232 119.381,115.565 117,116.5C 116.333,115.833 115.667,115.167 115,114.5C 113.992,114.982 112.825,115.148 111.5,115C 109.582,117.989 107.582,120.989 105.5,124C 106.308,124.308 106.975,124.808 107.5,125.5C 106.398,126.176 105.398,126.842 104.5,127.5C 103.167,127.5 101.833,127.5 100.5,127.5C 98.9406,124.512 99.9406,122.679 103.5,122C 102.672,121.085 101.672,120.419 100.5,120C 101.5,119.667 102.5,119.333 103.5,119C 103.028,116.601 104.028,114.601 106.5,113C 105.833,112.667 105.167,112.333 104.5,112C 106.298,112.006 107.965,112.339 109.5,113C 111.541,111.758 112.707,109.925 113,107.5C 117.403,109.476 121.903,109.476 126.5,107.5C 126.586,108.496 126.252,109.329 125.5,110C 126,110.167 126.5,110.333 127,110.5C 129.751,108.81 132.585,107.31 135.5,106C 134.09,105.632 133.09,104.799 132.5,103.5C 133.727,102.41 134.56,101.076 135,99.5C 137.398,99.0647 139.731,99.7313 142,101.5C 142.333,100.833 142.667,100.167 143,99.5C 144.25,100.573 145.584,100.573 147,99.5C 148.301,100.098 149.135,101.098 149.5,102.5C 148.355,103.891 148.355,105.224 149.5,106.5C 150.352,103.932 151.019,101.265 151.5,98.5C 152.794,100.962 154.294,103.295 156,105.5C 156.45,102.894 157.95,101.561 160.5,101.5C 160.651,98.2819 161.484,97.9485 163,100.5C 163.914,96.8149 164.581,97.1482 165,101.5C 165.495,99.5273 165.662,97.5273 165.5,95.5C 170.682,96.1163 171.349,97.9496 167.5,101C 167.728,101.399 168.062,101.565 168.5,101.5 Z"/></g>
<g><path style="opacity:1" fill="#412e1c" d="M 247.5,109.5 C 250.167,109.5 252.833,109.5 255.5,109.5C 255.5,115.5 255.5,121.5 255.5,127.5C 252.167,127.5 248.833,127.5 245.5,127.5C 246.718,126.839 248.051,126.172 249.5,125.5C 248.371,123.471 248.871,123.137 251,124.5C 251.865,122.112 251.032,120.612 248.5,120C 249.807,118.057 249.807,116.223 248.5,114.5C 248.634,112.708 248.301,111.042 247.5,109.5 Z"/></g>
<g><path style="opacity:1" fill="#856b55" d="M 169.5,127.5 C 167.5,127.5 165.5,127.5 163.5,127.5C 163.656,124.934 163.322,122.434 162.5,120C 164.233,117.042 165.233,113.875 165.5,110.5C 166.275,108.388 166.275,106.388 165.5,104.5C 167.575,104.302 169.575,104.135 171.5,104C 171.833,104.333 172.167,104.667 172.5,105C 168.027,106.02 167.694,107.187 171.5,108.5C 171.007,110.806 170.674,113.139 170.5,115.5C 169.5,115.5 168.5,115.5 167.5,115.5C 168.644,119.36 169.311,123.36 169.5,127.5 Z"/></g>
<g><path style="opacity:1" fill="#e2b286" d="M 201.5,103.5 C 202.692,104.566 202.359,105.399 200.5,106C 201.861,108.584 201.195,110.584 198.5,112C 202.084,114.576 205.75,116.409 209.5,117.5C 210.624,118.914 211.624,120.414 212.5,122C 212.596,123.373 212.43,124.873 212,126.5C 213.117,125.051 213.784,123.384 214,121.5C 215.294,122.854 215.46,124.188 214.5,125.5C 215.243,126.182 215.909,126.849 216.5,127.5C 210.167,127.5 203.833,127.5 197.5,127.5C 196.432,126.566 195.099,126.232 193.5,126.5C 193.5,125.5 193.5,124.5 193.5,123.5C 192.5,123.5 191.5,123.5 190.5,123.5C 189.129,121.741 188.129,119.741 187.5,117.5C 188.025,116.808 188.692,116.308 189.5,116C 187.729,115.465 187.396,114.631 188.5,113.5C 192.451,114.672 194.618,117.339 195,121.5C 199.994,121.754 204.827,121.421 209.5,120.5C 205.593,118.857 201.593,117.524 197.5,116.5C 197.657,115.127 197.49,113.793 197,112.5C 195.901,115.044 194.735,115.044 193.5,112.5C 196.846,111.896 197.179,110.063 194.5,107C 195.167,106.667 195.833,106.333 196.5,106C 194.021,104.68 191.687,103.18 189.5,101.5C 189.783,100.711 190.283,100.044 191,99.5C 193.398,99.9582 195.064,101.292 196,103.5C 197.309,101.109 198.309,101.109 199,103.5C 199.97,103.376 200.803,103.376 201.5,103.5 Z"/></g>
<g><path style="opacity:1" fill="#7a6350" d="M 248.5,114.5 C 249.807,116.223 249.807,118.057 248.5,120C 251.032,120.612 251.865,122.112 251,124.5C 248.871,123.137 248.371,123.471 249.5,125.5C 248.051,126.172 246.718,126.839 245.5,127.5C 244.5,127.5 243.5,127.5 242.5,127.5C 244.229,123.042 246.229,118.709 248.5,114.5 Z"/></g>
<g><path style="opacity:1" fill="#9a6038" d="M 97.5,110.5 C 96.0187,115.012 95.352,119.678 95.5,124.5C 91.1496,124.23 86.983,124.897 83,126.5C 80.8215,125.16 80.3215,125.493 81.5,127.5C 77.8333,127.5 74.1667,127.5 70.5,127.5C 72.4467,126.85 74.1134,125.683 75.5,124C 74.8333,123.333 74.1667,122.667 73.5,122C 69.4326,121.785 65.5992,121.951 62,122.5C 60.6764,121.12 59.3431,120.786 58,121.5C 57.3333,117.5 56.6667,117.5 56,121.5C 54.3023,120.267 52.3023,119.6 50,119.5C 47.9063,119.536 45.9063,119.869 44,120.5C 43.6827,118.699 43.016,118.366 42,119.5C 41.2613,118.426 40.2613,117.759 39,117.5C 35.7472,117.914 32.5805,117.914 29.5,117.5C 26.5,118.167 23.5,118.833 20.5,119.5C 17.2406,118.471 13.7406,118.471 10,119.5C 9.37405,117.009 8.54072,117.009 7.5,119.5C 4.80453,119.514 2.13786,119.514 -0.5,119.5C -0.5,118.167 -0.5,116.833 -0.5,115.5C 5.25021,116.258 11.0835,115.924 17,114.5C 22.3767,115.792 27.71,115.792 33,114.5C 34.3086,116.891 35.3086,116.891 36,114.5C 39.1311,115.7 42.2977,115.7 45.5,114.5C 45.369,115.239 45.5357,115.906 46,116.5C 50.3832,115.504 54.7165,115.837 59,117.5C 59.3333,116.833 59.6667,116.167 60,115.5C 64.7241,116.358 69.3907,116.692 74,116.5C 75.3333,115.833 76.6667,115.167 78,114.5C 83.7412,115.475 89.5746,115.808 95.5,115.5C 95.5,114.5 95.5,113.5 95.5,112.5C 90.9887,112.626 86.4887,112.96 82,113.5C 79.0221,113.852 76.5221,113.018 74.5,111C 80.71,111.459 86.8767,110.959 93,109.5C 94.3561,110.38 95.8561,110.714 97.5,110.5 Z"/></g>
<g><path style="opacity:1" fill="#c89d77" d="M 165.5,110.5 C 165.233,113.875 164.233,117.042 162.5,120C 163.322,122.434 163.656,124.934 163.5,127.5C 149.833,127.5 136.167,127.5 122.5,127.5C 124.906,124.868 127.74,123.868 131,124.5C 132.996,124.004 134.663,123.004 136,121.5C 137.938,122.86 139.604,122.527 141,120.5C 141.249,121.624 141.749,122.624 142.5,123.5C 144.768,122.12 147.101,121.287 149.5,121C 148.5,122 147.5,123 146.5,124C 152.363,123.587 157.029,120.92 160.5,116C 158.043,114.846 158.043,113.512 160.5,112C 159.692,111.692 159.025,111.192 158.5,110.5C 160.718,109.943 163.051,109.943 165.5,110.5 Z"/></g>
<g><path style="opacity:1" fill="#fde2ae" d="M 220.5,106.5 C 221.222,106.918 221.722,107.584 222,108.5C 222.333,107.833 222.667,107.167 223,106.5C 224.512,108.957 225.846,108.957 227,106.5C 227.374,107.416 227.874,108.25 228.5,109C 231.002,110.415 233.668,110.581 236.5,109.5C 236.343,110.873 236.51,112.207 237,113.5C 238.163,111.715 238.83,109.715 239,107.5C 239.273,109.101 239.773,110.601 240.5,112C 241.167,112.667 241.833,112.667 242.5,112C 241.226,111.023 241.226,110.189 242.5,109.5C 243.778,110.749 244.778,112.249 245.5,114C 245.297,118.405 243.297,121.738 239.5,124C 239.833,124.333 240.167,124.667 240.5,125C 238.68,125.2 237.347,126.034 236.5,127.5C 233.833,127.5 231.167,127.5 228.5,127.5C 228.36,125.876 229.027,124.71 230.5,124C 227.544,121.515 224.21,119.515 220.5,118C 224.185,117.086 223.852,116.419 219.5,116C 221.929,115.549 222.096,114.715 220,113.5C 218.236,115.661 216.403,115.828 214.5,114C 215.458,112.853 215.125,111.853 213.5,111C 215.167,110.667 216.833,110.333 218.5,110C 217.234,109.691 216.067,109.191 215,108.5C 214.667,108.833 214.333,109.167 214,109.5C 212.438,107.496 211.938,105.496 212.5,103.5C 212.622,102.197 212.622,100.864 212.5,99.5C 214.89,100.824 217.223,101.324 219.5,101C 215.725,103.289 215.892,105.455 220,107.5C 220.399,107.272 220.565,106.938 220.5,106.5 Z"/></g>
<g><path style="opacity:1" fill="#cd8b2b" d="M 95.5,124.5 C 95.5,125.5 95.5,126.5 95.5,127.5C 90.8333,127.5 86.1667,127.5 81.5,127.5C 80.3215,125.493 80.8215,125.16 83,126.5C 86.983,124.897 91.1496,124.23 95.5,124.5 Z"/></g>
<g><path style="opacity:1" fill="#f2c298" d="M 243.5,103.5 C 243.833,103.5 244.167,103.5 244.5,103.5C 245.5,105.5 246.5,107.5 247.5,109.5C 248.301,111.042 248.634,112.708 248.5,114.5C 246.229,118.709 244.229,123.042 242.5,127.5C 240.5,127.5 238.5,127.5 236.5,127.5C 237.347,126.034 238.68,125.2 240.5,125C 240.167,124.667 239.833,124.333 239.5,124C 243.297,121.738 245.297,118.405 245.5,114C 244.778,112.249 243.778,110.749 242.5,109.5C 243.675,109.719 244.675,109.386 245.5,108.5C 244.05,107.15 243.383,105.484 243.5,103.5 Z"/></g>
<g><path style="opacity:1" fill="#593a23" d="M 70.5,127.5 C 46.8333,127.5 23.1667,127.5 -0.5,127.5C -0.5,124.833 -0.5,122.167 -0.5,119.5C 2.13786,119.514 4.80453,119.514 7.5,119.5C 8.54072,117.009 9.37405,117.009 10,119.5C 13.7406,118.471 17.2406,118.471 20.5,119.5C 23.5,118.833 26.5,118.167 29.5,117.5C 32.5805,117.914 35.7472,117.914 39,117.5C 40.2613,117.759 41.2613,118.426 42,119.5C 43.016,118.366 43.6827,118.699 44,120.5C 45.9063,119.869 47.9063,119.536 50,119.5C 52.3023,119.6 54.3023,120.267 56,121.5C 56.6667,117.5 57.3333,117.5 58,121.5C 59.3431,120.786 60.6764,121.12 62,122.5C 65.5992,121.951 69.4326,121.785 73.5,122C 74.1667,122.667 74.8333,123.333 75.5,124C 74.1134,125.683 72.4467,126.85 70.5,127.5 Z"/></g>
</svg>
